<?xml version="1.0" encoding="UTF-8" standalone="no"?>
<svg
   id="svg4136"
   height="1155.6313"
   viewBox="0 0 3282.6143 1155.6314"
   width="3282.6143"
   version="1.1"
   sodipodi:docname="Aeroplane4.svg"
   inkscape:version="1.4.2 (ebf0e940, 2025-05-08)"
   inkscape:export-filename="Aeroplane4.png"
   inkscape:export-xdpi="96"
   inkscape:export-ydpi="96"
   xmlns:inkscape="http://www.inkscape.org/namespaces/inkscape"
   xmlns:sodipodi="http://sodipodi.sourceforge.net/DTD/sodipodi-0.dtd"
   xmlns="http://www.w3.org/2000/svg"
   xmlns:svg="http://www.w3.org/2000/svg">
  <defs
     id="defs6">
    <rect
       x="207.36865"
       y="923.73309"
       width="25.135593"
       height="219.93645"
       id="rect20" />
    <inkscape:perspective
       sodipodi:type="inkscape:persp3d"
       inkscape:vp_x="-779.98805 : 500.93459 : 0"
       inkscape:vp_y="-5.5975836e-14 : 698.13286 : 0"
       inkscape:vp_z="240.86165 : 1.3515998e-13 : 0"
       inkscape:persp3d-origin="3604.6267 : -1042.3152 : 1"
       id="perspective1" />
  </defs>
  <sodipodi:namedview
     id="namedview4"
     pagecolor="#ffffff"
     bordercolor="#000000"
     borderopacity="0.25"
     inkscape:showpageshadow="2"
     inkscape:pageopacity="0.0"
     inkscape:pagecheckerboard="0"
     inkscape:deskcolor="#d1d1d1"
     showgrid="false"
     inkscape:zoom="0.15913688"
     inkscape:cx="1643.2395"
     inkscape:cy="618.964"
     inkscape:window-width="1920"
     inkscape:window-height="1172"
     inkscape:window-x="0"
     inkscape:window-y="0"
     inkscape:window-maximized="1"
     inkscape:current-layer="svg4136" />
  <path
     style="fill:none;fill-opacity:1;stroke:#000000;stroke-width:8;stroke-dasharray:24, 24;stroke-dashoffset:0;stroke-opacity:1"
     d="M 5.4573986,658.98284 2493.8812,652.69894"
     id="path19" />
  <path
     d="M 4,4 763.68666,491.89634 H 3278.6142 L 2518.9275,4 Z"
     style="fill:none;fill-opacity:1;fill-rule:evenodd;stroke:#000000;stroke-width:8;stroke-linejoin:round;stroke-dasharray:none;stroke-opacity:1"
     id="path15" />
  <path
     d="M 763.68666,491.89634 V 1151.6313 H 3278.6142 V 491.89634 Z"
     style="fill:none;fill-opacity:1;fill-rule:evenodd;stroke:#000000;stroke-width:8;stroke-linejoin:round;stroke-dasharray:none;stroke-opacity:1"
     id="path16" />
  <path
     d="M 4,4 763.68666,491.89634 V 1151.6313 L 4,663.73493 Z"
     style="fill:none;fill-opacity:1;fill-rule:evenodd;stroke:#000000;stroke-width:8;stroke-linejoin:round;stroke-dasharray:none;stroke-opacity:1"
     id="path17" />
  <path
     style="fill:none;fill-opacity:1;stroke:#000000;stroke-width:8;stroke-dasharray:24, 24;stroke-dashoffset:0;stroke-opacity:1"
     d="M 2519.0168,665.26674 3266.8007,1142.843"
     id="path18" />
  <g
     id="g341"
     transform="matrix(0.77284935,0,0,0.68526363,246.56021,119.62388)">
    <path
       id="path4146"
       d="m 2304.3244,1477.0539 c -3.5586,-1.2478 -13.0027,-5.7336 -21.7623,-10.3365 -3.9218,-2.0609 -10.0429,-4.9705 -13.6023,-6.4658 -3.5595,-1.4953 -9.4172,-4.1645 -13.0171,-5.9316 -3.6,-1.7671 -9.2454,-4.5383 -12.5454,-6.1582 -3.3,-1.62 -17.9983,-8.6553 -32.6628,-15.6339 -27.5465,-13.1089 -59.8639,-28.583 -63.6941,-30.4971 -1.2017,-0.6005 -5.6948,-2.7057 -9.9846,-4.6783 -11.619,-5.3426 -34.6651,-16.4708 -43.3774,-20.9459 -4.2154,-2.1651 -9.1082,-4.4658 -10.8729,-5.1126 -1.7647,-0.6468 -5.6509,-2.2994 -8.636,-3.6725 -2.9851,-1.373 -11.7666,-5.3429 -19.5145,-8.8225 -7.7478,-3.4792 -15.3229,-6.9868 -16.8336,-7.7947 -1.5107,-0.8078 -7.1478,-3.5237 -12.527,-6.0351 -5.3792,-2.5115 -11.37,-5.3408 -13.3119,-6.2875 -14.8835,-7.2536 -36.272,-16.5547 -37.6102,-16.3552 -0.8958,0.1336 -4.6897,1.5742 -8.4306,3.2013 -3.741,1.6271 -12.7303,4.3929 -19.976,6.1463 -15.3383,3.7117 -15.0982,3.6604 -44.5835,9.5202 -12.4217,2.4687 -23.3376,4.7844 -24.2563,5.1457 -0.9193,0.3615 -1.74,0.1968 -1.8238,-0.3651 -0.1042,-0.6986 -7.3958,0.3303 -23.0227,3.2485 -29.2355,5.4595 -162.4735,24.4311 -166.3359,23.6843 -0.7073,-0.1363 -7.7701,0.5102 -15.6948,1.4365 -24.5154,2.8655 -55.2193,5.4276 -57.1056,4.7653 -0.9883,-0.3469 -3.6018,-0.3617 -5.8078,-0.033 -5.8169,0.8674 -16.5946,-2.0015 -21.4042,-5.6969 -14.9019,-11.4525 -31.7522,-70.2554 -26.6558,-93.02 0.3576,-1.5965 0.4298,-4.422 0.1607,-6.2789 -1.6225,-11.1931 6.1371,-27.2925 13.6985,-28.42 1.6013,-0.2388 3.9811,-1.0343 5.2886,-1.768 5.7514,-3.2273 63.4777,-13.8148 121.8072,-22.3405 48.5334,-7.0939 47.5962,-6.5986 27.9425,-14.7683 -3.8533,-1.6017 -8.2372,-3.54 -9.7418,-4.3076 -3.868,-1.9732 -25.771,-12.1523 -30.0044,-13.9435 -3.2789,-1.3878 -7.9236,-3.478 -40.8608,-18.3891 -6.6656,-3.0175 -13.5915,-6.2033 -15.3904,-7.0795 -15.9567,-7.7727 -25.2392,-11.4004 -28.9188,-11.3006 -5.7203,0.1547 -61.2314,6.0557 -70.2309,7.4658 -49.7217,7.7906 -78.246,12.0259 -86.0566,12.7771 -5.2081,0.5011 -16.4037,1.6995 -24.8793,2.663 -8.4756,0.9635 -23.0734,2.2305 -32.4395,2.8156 -26.7791,1.6728 -49.6753,3.6605 -66.4708,5.7706 -8.5124,1.0694 -16.1324,1.8379 -16.9333,1.7077 -0.801,-0.1303 -5.4997,0.1077 -10.4412,0.5289 -12.4916,1.0646 -19.8521,1.22 -21.2179,0.448 -0.6385,-0.361 -4.4438,-0.7077 -8.4561,-0.7705 -4.0122,-0.063 -7.3522,-0.4976 -7.4221,-0.9662 -0.07,-0.4688 -2.0047,-1.297 -4.2995,-1.8406 -4.4939,-1.0645 -12.7868,-8.9026 -14.8553,-14.0417 -0.5938,-1.4752 -1.5395,-3.1181 -2.1013,-3.6508 -7.1522,-6.7836 -15.3886,-37.8808 -15.9441,-60.1979 -0.7182,-28.8546 5.7144,-41.4581 22.5745,-44.2329 2.8853,-0.4748 5.9408,-1.38 6.7901,-2.0116 2.0528,-1.5265 54.3699,-13.0979 78.1103,-17.276 23.6724,-4.1663 28.7814,-9.2033 11.0969,-10.94 -1.3546,-0.133 -3.8129,-1.1782 -5.4629,-2.3227 -3.823,-2.5845 -20.3478,-10.3423 -21.6336,-10.1505 -0.5544,0.083 -3.8861,-1.468 -7.4035,-3.4459 -3.5175,-1.9779 -6.6634,-3.5562 -6.9911,-3.5073 -0.3277,0.049 -2.2708,-1.0379 -4.318,-2.4149 -2.0472,-1.377 -5.714,-3.1663 -8.1483,-3.9761 -2.4344,-0.8098 -4.6915,-1.7262 -5.0158,-2.0363 -1.7292,-1.6541 -12.4648,-6.36355 -18.9319,-8.30583 -4.075,-1.22351 -9.9612,-3.81517 -13.0804,-5.75921 -3.1192,-1.94405 -7.5311,-4.07095 -9.8042,-4.72638 -2.2732,-0.65551 -5.7791,-2.20797 -7.7908,-3.44986 -2.0118,-1.24189 -4.2211,-2.17396 -4.9096,-2.0713 -0.6885,0.10266 -3.9994,-1.61221 -7.3576,-3.81078 -3.3583,-2.19858 -8.0298,-4.69483 -10.3812,-5.54727 -2.3514,-0.85234 -6.5082,-2.79334 -9.2371,-4.3131 -2.729,-1.51985 -6.8856,-3.46017 -9.2369,-4.31181 -2.3513,-0.85175 -8.4387,-3.53575 -13.5276,-5.96461 -5.0888,-2.42887 -10.927,-4.96723 -12.9737,-5.64085 -2.0468,-0.67361 -5.4614,-2.21509 -7.5882,-3.42557 -2.1268,-1.21039 -6.0983,-3.17203 -8.8255,-4.35911 -6.8417,-2.97787 -17.2431,-7.82864 -27.725,-12.92957 -4.8574,-2.36379 -10.4631,-4.86906 -12.4572,-5.56731 -1.9941,-0.6983 -6.103,-2.36734 -9.1308,-3.70908 -5.7264,-2.53743 -15.6028,-4.17843 -18.0548,-2.99983 -0.7783,0.37415 -6.445,0.51183 -12.5926,0.30597 -6.1476,-0.20587 -14.3545,-0.32256 -18.2376,-0.2592 -3.8831,0.0633 -14.7989,0.0877 -24.2573,0.0542 -9.4584,-0.0335 -23.3154,-0.0435 -30.79301,-0.0223 -7.47754,0.0212 -16.39156,-0.25986 -19.80875,-0.6248 -3.41727,-0.36483 -11.65237,-0.52861 -18.30076,-0.36383 -6.64841,0.16474 -13.73202,-0.0465 -15.74136,-0.46944 -2.00935,-0.42297 -10.25197,-0.77888 -18.31692,-0.79081 -19.17184,-0.0285 -42.38728,-0.53428 -50.71753,-1.105 -3.65183,-0.25016 -10.04452,-0.40468 -14.20597,-0.34329 -14.21555,0.20946 -27.78523,0.0921 -34.92646,-0.30214 -3.92487,-0.21668 -8.95695,-0.40013 -11.1824,-0.40771 -2.22545,-0.008 -9.99441,-0.23816 -17.26438,-0.5126 -7.26997,-0.27445 -19.61818,-0.70295 -27.4405,-0.95236 -7.82232,-0.24942 -17.43237,-0.62213 -21.35567,-0.82828 -16.44934,-0.86435 -34.91859,-1.37494 -39.59434,-1.0944 -2.75576,0.16532 -6.33517,0.006 -7.95424,-0.3537 -1.61908,-0.35988 -4.14089,-0.49027 -5.60402,-0.2898 -1.46313,0.20047 -3.62162,-0.16015 -4.79663,-0.80137 -1.17502,-0.64123 -3.9433,-0.89898 -6.15175,-0.57282 -2.20843,0.32626 -5.63681,0.39821 -7.6186,0.16002 -1.9818,-0.23817 -6.7792,-0.3734 -10.66088,-0.30045 -7.1286,0.13397 -21.36224,-0.72993 -43.87242,-2.66272 -6.75951,-0.58038 -14.33952,-1.06944 -16.84445,-1.08671 -2.50495,-0.0173 -8.93617,-0.43022 -14.29159,-0.91755 -12.28317,-1.11783 -26.1665,-2.19948 -55.2387,-4.3036 -12.64833,-0.91557 -24.62534,-1.90586 -26.61559,-2.20077 -1.99025,-0.29487 -7.52634,-0.80716 -12.30243,-1.13852 -13.78575,-0.95617 -22.41015,-1.77724 -31.2812,-2.97779 -4.54026,-0.61443 -12.39678,-1.43222 -17.4589,-1.81718 -5.06213,-0.38496 -16.14796,-1.50115 -24.63516,-2.48029 -8.48721,-0.97914 -18.20329,-2.06299 -21.59128,-2.40841 -23.81038,-2.42765 -32.32878,-3.35836 -43.68142,-4.77216 -7.08254,-0.88213 -19.11192,-2.22364 -26.73197,-2.98124 -7.62004,-0.7575 -16.40493,-1.69892 -19.52199,-2.09203 -3.11706,-0.39312 -10.52731,-1.26934 -16.46724,-1.94724 -15.80587,-1.80392 -39.87698,-5.74285 -52.66587,-8.61822 -42.83133,-9.64885 -55.22598,-12.69422 -70.53262,-17.36794 -6.11721,-1.86687 -14.69419,-4.46517 -19.05994,-5.77393 -15.42348,-4.62334 -27.1157,-8.49089 -33.27597,-11.00589 -3.42808,-1.39954 -9.96421,-4.0417 -14.52472,-5.87144 -19.927517,-7.9986 -68.389926,-36.82672 -69.021129,-41.05992 -0.09172,-0.61514 -1.647014,-2.39226 -3.456191,-3.94907 -1.809177,-1.55681 -4.169489,-4.06433 -5.245125,-5.57219 -1.075626,-1.50786 -5.192897,-7.26359 -9.149458,-12.79052 -3.95656,-5.52693 -7.2780646,-10.61169 -7.3810566,-11.29901 -0.103,-0.68729 -0.731785,-1.9585 -1.397276,-2.82482 -4.38688,-5.71554 -7.01212303,-14.76735 -6.17423803,-21.29227 C 2.0154834,709.67846 21.377014,674.06364 33.300713,663.19634 c 2.278347,-2.07874 5.862683,-5.96989 7.965522,-8.64931 5.336925,-6.80398 18.818511,-19.07589 51.633203,-46.99965 15.544282,-13.22706 28.981582,-25.32808 29.860582,-26.89181 2.70123,-4.80279 17.20845,-24.21868 19.70077,-26.36774 1.29994,-1.11389 5.51593,-5.25089 9.37671,-9.19338 15.18582,-15.52937 55.90976,-47.27232 61.75513,-48.14391 0.75373,-0.11239 2.27297,-1.00888 3.37602,-1.99217 9.87211,-8.80024 56.40863,-28.08004 83.49363,-34.59066 33.10832,-7.95855 68.95745,-9.95113 127.84991,-7.10667 15.58035,0.75258 28.59407,1.09449 37.55613,0.98641 3.88558,-0.0468 13.23669,0.11494 20.78024,0.35951 7.54356,0.24457 17.35497,0.44207 21.80316,0.43903 4.44818,-0.003 14.70368,0.12137 22.78999,0.27662 21.51417,0.41306 30.72078,0.5415 42.04617,0.58595 5.56407,0.0219 12.18593,0.1877 14.71523,0.36836 2.52931,0.18072 14.3668,0.2353 26.30553,0.12126 11.93872,-0.11404 34.91263,-0.12964 51.05311,-0.0348 16.14049,0.0949 34.12458,0.17926 39.96463,0.18737 5.84006,0.008 13.60022,0.17975 17.24481,0.38136 3.64459,0.20166 11.18171,0.40305 16.74915,0.44757 40.96422,0.32749 62.54754,0.59405 67.35926,0.83213 3.08116,0.1523 10.5809,0.10309 16.6661,-0.10946 6.0852,-0.2125 14.95422,-0.23256 19.70891,-0.0447 4.75471,0.18791 12.9718,0.37263 18.26021,0.41052 5.28841,0.0379 13.94812,0.1397 19.24381,0.22635 5.29568,0.0866 13.72463,0.16655 18.73101,0.17764 5.00638,0.0111 14.35483,0.15508 20.77436,0.32005 13.19022,0.33895 34.00696,0.71951 43.08732,0.78781 14.15039,0.1062 27.01138,0.14927 37.42768,0.12484 6.1147,-0.0143 13.3967,0.001 16.1821,0.0349 2.7854,0.0335 8.024,0.0767 11.6414,0.0959 8.8301,0.047 24.3024,0.26162 38.5008,0.53385 19.5531,0.37506 18.9492,0.90866 17.4345,-15.39959 -3.198,-34.43187 7.4959,-59.6841 29.1888,-68.92839 6.5013,-2.77039 11.2041,-3.65077 12.8783,-2.41096 1.4135,1.04678 18.4996,1.62297 35.7223,1.20494 6.8138,-0.16541 14.323,-0.153 16.6865,0.0277 3.8269,0.29244 15.1326,0.24457 35.0636,-0.1482 3.6039,-0.0711 9.0719,-0.0154 12.1511,0.12384 3.0792,0.13914 11.0457,0.16905 17.7034,0.0664 6.6577,-0.10261 14.1607,-0.1298 16.6734,-0.0605 2.5127,0.0693 9.626,0.089 15.8073,0.0437 6.1813,-0.0453 12.4385,0.18006 13.9059,0.50077 3.61,0.78944 8.3173,-0.75124 19.4652,-6.37105 9.714,-4.89705 28.9373,-13.44046 36.5064,-16.22527 4.1532,-1.5279 7.1457,-2.86759 29.7679,-13.32764 5.6746,-2.62376 15.214,-6.82373 21.1994,-9.33338 5.9852,-2.50962 14.9852,-6.50703 20.0006,-8.88337 5.015,-2.37618 10.6319,-4.8504 12.4816,-5.49827 1.8497,-0.64781 8.2569,-3.44691 14.2383,-6.22025 14.0168,-6.49913 39.1541,-17.20953 48.9588,-20.86142 4.2146,-1.56949 10.4168,-4.21827 13.7826,-5.88609 10.2617,-5.08901 35.4323,-16.6475 36.7181,-16.83922 0.629,-0.0938 2.9598,-1.06457 5.1797,-2.15737 2.2198,-1.09275 9.1612,-4.22993 15.4255,-6.97155 19.6534,-8.60148 20.8836,-9.41692 20.0049,-13.25521 -2.3778,-10.38387 -3.5731,-19.76415 -3.2051,-25.15234 0.2302,-3.37081 0.3394,-9.40419 0.2426,-13.40739 -0.171,-7.07342 1.8561,-23.1539 3.2124,-25.48341 0.37,-0.63544 0.767,-2.65939 0.8824,-4.4977 0.2708,-4.31411 8.1497,-17.92389 12.8928,-22.2689 9.1355,-8.36971 14.8598,-9.64677 42.0601,-9.38311 10.5869,0.10269 22.4373,0.2101 26.3342,0.23862 3.8968,0.0286 8.9313,0.22872 11.1879,0.44469 2.2565,0.21599 6.3827,0.42666 9.1693,0.46806 2.7865,0.0415 9.1775,0.18443 14.2021,0.31768 5.0246,0.13323 14.5756,0.11013 21.2245,-0.0513 6.6489,-0.16146 17.1119,-0.17099 23.2511,-0.0212 6.1393,0.14984 17.9535,0.0482 26.2538,-0.22591 8.3003,-0.27407 17.8107,-0.5701 21.1341,-0.65779 3.3234,-0.0877 9.5227,0.50141 13.7757,1.30941 8.3958,1.59455 10.9034,1.03826 19.151,-4.24788 2.0302,-1.30134 6.475,-3.53133 9.8771,-4.95554 3.4022,-1.42424 8.3178,-3.54738 10.9237,-4.71818 2.6058,-1.17075 10.0955,-4.33861 16.6438,-7.03966 6.5482,-2.70105 14.0404,-5.85244 16.6492,-7.00306 2.6089,-1.15064 6.4568,-2.80572 8.5511,-3.67791 2.0943,-0.87219 6.7877,-2.9599 10.4299,-4.6394 3.6421,-1.6795 7.5446,-3.2044 8.6722,-3.38872 1.1276,-0.18431 5.83,-2.21167 10.4499,-4.50517 10.4021,-5.164352 18.8622,-9.072663 31.1418,-14.386827 5.2237,-2.2607 10.9665,-4.938822 12.7618,-5.95136 1.7953,-1.012528 5.0023,-2.389356 7.1267,-3.059682 2.1244,-0.670287 7.2708,-2.771578 11.4364,-4.669569 4.1656,-1.897991 9.7287,-4.256201 12.3623,-5.240466 2.6337,-0.984284 9.2667,-3.795215 14.74,-6.246413 5.4733,-2.451298 14.8664,-6.585163 20.8735,-9.186412 6.007,-2.601248 13.8985,-6.125805 17.5366,-7.832304 3.6381,-1.706498 8.9629,-4.137158 11.8328,-5.401629 2.8699,-1.264393 7.1277,-3.222213 9.4618,-4.350679 2.3341,-1.128496 7.6675,-3.501166 11.852,-5.272656 4.1845,-1.77149 10.5914,-4.57349 14.2374,-6.226678 3.6461,-1.653188 8.5655,-3.751028 10.932,-4.6619 3.8491,-1.481514 11.4931,-5.021779 24.8059,-11.4890307 6.9965,-3.398784 14.9852,-4.954154 21.882,-4.260438 3.3872,0.340767 9.093,0.465566 12.6795,0.277287 5.8843,-0.308837 13.318,-0.573877 40.2283,-1.434354 4.7043,-0.150416 11.9306,-0.507939 16.0585,-0.794441 4.1278,-0.28653204 10.7106,-0.38286504 14.6283,-0.214096 3.9178,0.168799 13.9076,0.03745 22.1998,-0.29184504 35.4098,-1.40622 54.0575,-0.763207 58.9585,2.03318404 4.9487,2.823649 4.048,13.3590837 -1.2092,14.1429697 -1.8201,0.271403 -17.091,9.614065 -18.7456,11.468658 -0.7147,0.800949 -4.1036,3.090183 -7.5309,5.087065 -3.4273,1.99698 -6.6599,4.338127 -7.1837,5.202618 -0.5767,0.878662 -1.472,1.655185 -1.9665,1.728923 -1.4951,0.222927 -16.7561,10.558396 -38.8781,26.329542 -1.5079,1.075073 -8.3136,5.779261 -15.1237,10.453807 -6.8101,4.674546 -14.2182,9.91528 -16.4624,11.646186 -2.2443,1.730906 -10.903,7.738854 -19.2415,13.35067 -8.3385,5.6122 -21.9745,14.85517 -30.3023,20.53948 -15.2055,10.37966 -17.6926,12.02758 -26.2242,17.37548 -2.5428,1.59382 -8.3448,5.40052 -12.8934,8.45938 -8.7748,5.9007 -20.3782,13.64047 -31.726,21.16226 -3.7955,2.51576 -10.7265,7.132 -15.4015,10.25825 -4.6755,3.12631 -8.7335,5.71892 -9.0179,5.76132 -0.2844,0.0424 -4.7452,2.93945 -9.9129,6.43793 -14.1418,9.58035 -29.2269,19.61478 -29.6225,19.67377 -0.1766,0.0263 -3.4154,2.10168 -7.1972,4.61185 -3.7817,2.51017 -7.3489,4.63448 -7.9271,4.7207 -0.5782,0.0862 -4.6737,2.72182 -9.1011,5.85684 -11.2868,7.99203 -33.4601,22.91012 -41.1674,27.69712 -3.5627,2.2127 -15.1797,9.73945 -25.8156,16.7261 -10.6359,6.98666 -24.7424,16.12528 -31.3478,20.30815 -6.6053,4.18298 -16.8477,10.89985 -22.7597,14.92574 -5.9126,4.02651 -12.1029,7.80748 -13.7552,8.40217 -2.0482,0.73701 -4.7717,3.60736 -8.5519,9.01336 -3.0506,4.36261 -9.9062,13.78569 -15.2343,20.94069 -21.4438,28.79534 -59.9775,79.94651 -67.1318,89.11384 -10.0836,12.9214 -21.3475,29.4685 -21.1162,31.01935 0.2032,1.36283 2.268,1.60385 12.8621,1.50136 3.8869,-0.0376 13.2133,-0.0413 20.7254,-0.008 7.512,0.0331 16.3856,0.0436 19.719,0.0231 3.3334,-0.0204 8.805,0.059 12.159,0.17646 7.8979,0.27655 26.0243,0.54071 53.196,0.77556 11.9712,0.10346 25.6505,0.30498 30.3984,0.44772 4.748,0.14281 13.4093,0.25533 19.2474,0.24999 5.838,-0.005 17.2302,0.11437 25.316,0.26596 8.0858,0.15159 17.8882,0.28866 21.7831,0.30462 3.895,0.016 10.5088,0.1276 14.6973,0.24809 4.1886,0.12043 12.3982,0.25494 18.2436,0.29886 5.8454,0.0439 12.6919,0.19091 15.2145,0.32657 2.5226,0.13571 6.1786,0.24407 8.1244,0.24088 8.9861,-0.015 30.2791,0.3187 33.9496,0.53191 5.1133,0.29716 12.9071,0.43364 33.4522,0.58567 8.9071,0.0659 18.709,0.19952 21.782,0.29699 9.1842,0.29112 42.2503,0.57876 54.1617,0.47113 11.0703,-0.10011 25.252,0.13497 33.9543,0.56277 2.5208,0.12392 7.7395,0.0333 11.5971,-0.20112 6.6345,-0.40337 17.7162,-0.32206 29.5734,0.21687 2.9214,0.1328 8.8333,0.11394 13.1374,-0.0419 8.4296,-0.30522 18.3636,-0.31364 28.0857,-0.0236 9.5393,0.28457 24.5923,0.28067 32.858,-0.008 4.149,-0.14516 10.0603,-0.1677 13.1362,-0.0502 3.076,0.11759 9.9213,0.25604 15.2118,0.30768 5.2904,0.0516 14.1764,0.14548 19.7466,0.20849 5.5702,0.0631 14.4565,0.15844 19.7472,0.21186 5.2907,0.0534 11.4588,0.22727 13.7068,0.38627 2.2481,0.15901 7.022,0.13672 10.6087,-0.0497 3.5868,-0.18632 8.5852,-0.20587 11.1081,-0.0435 2.5226,0.16241 8.9134,0.304 14.2017,0.31471 5.2884,0.0107 13.7205,0.0918 18.7385,0.18047 8.4747,0.14961 15.1783,0.11076 31.8207,-0.18446 20.7829,-0.36873 30.2818,-0.23969 34.3727,0.46662 7.7932,1.34558 11.6837,-1.41778 33.2945,-23.64777 6.6755,-6.86687 13.8423,-14.10465 15.9262,-16.08362 2.0842,-1.97902 5.1758,-5.10746 6.8702,-6.95211 1.6943,-1.84465 4.073,-4.24672 5.2859,-5.33793 15.1941,-13.67026 19.3087,-17.6061 19.1956,-18.36471 -0.074,-0.49285 1.2227,-1.7165 2.8804,-2.71914 1.6578,-1.00269 4.4698,-3.33242 6.2489,-5.17717 7.9243,-8.21681 30.9019,-30.20765 41.4064,-39.62883 2.6935,-2.41576 6.9218,-6.54347 9.3959,-9.17269 2.4744,-2.62927 7.9144,-8.01958 12.0886,-11.97878 4.1745,-3.95893 11.2689,-10.85823 15.7653,-15.33167 4.4964,-4.47352 10.7721,-10.54869 13.9465,-13.50041 3.1744,-2.95183 8.5548,-8.06048 11.9565,-11.35255 3.4017,-3.29207 8.9836,-8.57514 12.4043,-11.74012 11.9296,-11.03784 27.6683,-25.9037 35.7394,-33.75687 2.3621,-2.2985 7.4551,-7.10434 11.3177,-10.67979 7.7685,-7.1909 10.424,-9.83201 15.012,-14.9322 3.7163,-4.13094 12.4507,-12.40484 18.0321,-17.0811 2.2245,-1.86364 6.2085,-5.65738 8.8535,-8.43038 7.342,-7.69744 10.312,-10.56985 18.6686,-18.05361 7.7903,-6.97646 20.893,-19.09805 25.9726,-24.02708 1.5257,-1.4807 4.301,-4.0787 6.1672,-5.77335 1.8662,-1.69465 7.8276,-7.48363 13.2476,-12.8644 9.1698,-9.10336 11.8303,-11.66372 17.0039,-16.36259 1.0988,-0.99797 3.8328,-3.56675 6.0754,-5.70842 2.2428,-2.14167 5.9824,-5.61415 8.3103,-7.71655 2.3279,-2.1025 5.3913,-5.20501 6.8076,-6.89446 1.4164,-1.68955 3.4336,-3.852701 4.4828,-4.807073 4.4063,-4.007856 17.0803,-16.026192 21.5758,-20.458639 4.6013,-4.53731 8.9798,-8.654754 19.0642,-17.929597 2.4451,-2.248587 4.9484,-4.748502 5.5629,-5.555353 0.6146,-0.806812 1.7191,-1.556639 2.4545,-1.666303 0.7355,-0.109664 3.1118,-2.026474 5.2807,-4.259553 7.5639,-7.787857 18.2284,-11.46545 25.7721,-8.887582 1.7072,0.583257 7.842,0.774046 13.6326,0.423938 5.791,-0.350108 10.9106,-0.472535 11.3772,-0.272165 0.8417,0.36138 7.049,0.368063 27.4425,0.02949 5.8244,-0.09669 13.5546,-0.12588 17.1782,-0.06491 7.0324,0.118282 18.9907,0.291695 34.197,0.495534 5.1544,0.06911 11.1296,-0.136452 13.2789,-0.45692 2.1491,-0.320454 6.5702,-0.297208 9.8246,0.05165 3.2544,0.348859 8.0633,0.314279 10.6865,-0.07686 2.6231,-0.391125 6.4667,-0.281766 8.5412,0.243019 2.5987,0.657344 7.2527,0.435152 14.9613,-0.714257 6.1541,-0.917619 12.4895,-1.384015 14.0791,-1.03648 1.5893,0.347559 6.7561,0.472501 11.4815,0.277576 17.8064,-0.734371 28.8862,-0.519843 31.9912,0.6196 1.7648,0.647642 4.4624,0.99336 5.9945,0.76834 6.8087,-0.99996 8.3477,1.329137 4.288,6.489372 -1.5895,2.02041 -2.9568,5.028155 -3.0387,6.683727 -0.1441,2.914726 -0.7906,4.335298 -6.3655,13.986703 -1.4364,2.486837 -2.557,4.88816 -2.4902,5.336305 0.067,0.448096 -1.5714,3.492933 -3.6403,6.766254 -3.9371,6.228734 -10.0913,18.105201 -14.2253,27.450064 -1.3379,3.02438 -3.1424,6.55996 -4.0101,7.85701 -0.8678,1.29707 -1.9796,3.55562 -2.4707,5.01904 -0.4911,1.46344 -2.7326,6.64507 -4.9813,11.51454 -2.2486,4.86967 -4.0272,9.26402 -3.9524,9.76538 0.075,0.50132 -0.8583,2.16272 -2.0732,3.69202 -1.2151,1.52931 -2.6956,4.21796 -3.2903,5.97488 -0.5947,1.75691 -1.6416,3.64555 -2.3264,4.19698 -0.6849,0.55144 -2.1861,3.7326 -3.336,7.06929 -1.15,3.33668 -3.1548,8.04521 -4.4549,10.4634 -1.3002,2.4182 -3.0194,6.16975 -3.8204,8.33678 -0.801,2.16702 -1.8724,4.29156 -2.3808,4.72114 -0.5084,0.4296 -1.3901,2.29813 -1.9594,4.15216 -2.0578,6.70216 -3.3852,9.84702 -5.6776,13.4504 -1.2838,2.01799 -2.2471,4.25229 -2.1408,4.96501 0.1063,0.71274 -0.6093,2.27382 -1.5903,3.46906 -2.0702,2.5226 -8.1402,14.46871 -9.7582,19.20613 -1.3807,4.04121 -0.5778,5.55505 3.1399,5.92017 6.7987,0.66764 7.6871,4.27872 3.6343,14.77256 -1.573,4.0724 -4.143,11.14384 -5.7111,15.71408 -1.5682,4.57004 -3.6286,9.83679 -4.5787,11.70423 -0.9502,1.86705 -4.1737,10.85623 -7.1632,19.97685 -2.9895,9.12031 -6.4177,19.00326 -7.6183,21.96268 -1.2004,2.95939 -2.6971,7.26521 -3.3262,9.56847 -0.629,2.30325 -1.9363,6.36546 -2.9051,9.02714 -0.9686,2.66166 -2.2243,6.27333 -2.7903,8.02597 -0.566,1.75263 -2.0974,5.84826 -3.4032,9.10141 -1.3058,3.25315 -4.113,10.95132 -6.2382,17.10706 -4.7908,13.87625 -13.4532,37.74072 -17.0715,47.03193 -1.4946,3.83737 -3.9888,10.29836 -5.5429,14.35743 -1.5539,4.05936 -3.5654,9.13653 -4.4701,11.28262 -0.9047,2.14609 -1.81,4.60903 -2.0118,5.47325 -0.8964,3.83755 -4.1036,13.12065 -8.4699,24.5172 -2.5987,6.7824 -4.3838,12.3546 -3.9669,12.38343 0.4168,0.0282 2.0118,0.13777 3.5445,0.24343 4.8381,0.33352 17.1526,9.71762 22.2124,16.92827 2.4927,3.55171 5.1241,7.00167 5.8473,7.66648 5.852,5.37847 13.0348,32.17144 10.5844,39.48075 -0.7698,2.29623 -1.3128,4.75732 -1.2066,5.46915 1.3738,9.21344 -13.7008,34.20862 -27.1532,45.02178 -5.8791,4.7258 -14.139,9.72804 -19.6119,11.87697 -7.483,2.9383 -11.7174,-0.17112 -7.3991,-5.43321 1.6334,-1.99036 17.3802,-10.4822 19.2776,-10.39599 2.5999,0.11807 6.0395,-2.27314 6.73,-4.67847 0.4129,-1.43832 2.061,-3.56119 3.6626,-4.71734 12.2298,-8.82834 21.0981,-38.18604 16.2054,-53.64754 -3.6171,-11.43257 -12.2373,-25.18971 -17.0663,-27.23592 -1.145,-0.48532 -2.5783,-2.09152 -3.1852,-3.56928 -1.2992,-3.16328 -7.3361,-8.13101 -10.8537,-8.93199 -1.9681,-0.44785 -2.4723,-1.14583 -2.4775,-3.42943 -0.01,-2.39214 -0.4917,-2.97208 -2.9351,-3.50021 -5.4545,-1.17917 -5.7503,-7.91258 -0.8134,-18.5145 1.4754,-3.16832 3.7838,-8.88204 5.1296,-12.69732 1.3458,-3.81521 3.4746,-8.90985 4.7306,-11.32147 1.256,-2.41159 2.2025,-5.03031 2.1033,-5.81941 -0.2171,-1.72688 8.5902,-25.79189 11.2466,-30.73267 1.035,-1.92448 1.8268,-3.86851 1.7594,-4.32011 -0.067,-0.45155 1.1127,-3.41291 2.6221,-6.58085 1.5095,-3.16796 3.0962,-7.57729 3.5261,-9.79847 1.0456,-5.40247 16.8431,-51.28273 31.3798,-91.13433 1.2871,-3.52839 3.9582,-10.97879 5.9359,-16.55644 1.9777,-5.57766 4.3451,-11.86352 5.2607,-13.96858 0.9158,-2.10527 2.7279,-7.38021 4.027,-11.72207 1.2991,-4.34186 3.1789,-8.88283 4.1773,-10.09099 2.5049,-3.03116 2.2007,-3.61711 -2.737,-5.27392 -5.381,-1.80547 -6.2638,-3.31155 -4.1317,-7.04835 0.9239,-1.61926 1.6198,-3.34728 1.5463,-3.83993 -0.073,-0.49266 0.5107,-2.22453 1.298,-3.8486 0.7873,-1.62406 4.7789,-10.04917 8.8698,-18.72282 4.0913,-8.67321 8.4352,-17.73797 9.6537,-20.14398 3.4658,-6.84386 14.1127,-29.91439 15.787,-34.20625 1.8691,-4.79346 10.319,-22.07721 11.1936,-22.89717 1.5905,-1.49006 13.061,-28.267296 12.4288,-29.015237 -0.9093,-1.075961 -7.5898,-1.526664 -21.5336,-1.452355 -6.1121,0.03251 -14.0765,0.01694 -17.6987,-0.03463 -3.6222,-0.05153 -9.0862,-0.08027 -12.1422,-0.0638 -3.0559,0.01645 -6.8371,-0.348386 -8.4025,-0.810681 -3.9555,-1.168221 -9.7169,2.931283 -12.9725,9.230983 -2.4874,4.81318 -3.6827,6.70645 -10.3192,16.34559 -3.4325,4.98562 -6.5224,9.99075 -15.5739,25.22664 -6.0663,10.21119 -6.6023,11.07326 -10.4211,16.76115 -2.0917,3.11494 -5.6077,8.81702 -7.8135,12.67086 -2.2057,3.85433 -6.3964,10.60287 -9.3132,14.99646 -2.9164,4.39395 -7.3299,11.47649 -9.8081,15.73858 -2.478,4.26204 -5.2279,8.94015 -6.1109,10.39569 -2.4041,3.96297 -7.0892,11.7439 -8.7026,14.45348 -0.783,1.31494 -9.9103,16.38268 -20.2836,33.4845 -10.3733,17.10183 -21.9409,36.36542 -25.7067,42.80926 -3.7659,6.44354 -8.9919,15.3004 -11.6144,19.68207 -2.6219,4.38138 -5.5412,9.67399 -6.4875,11.76136 -0.9462,2.08737 -3.7923,6.83401 -6.3247,10.5481 -7.4876,10.98152 -7.8091,12.62976 -3.1585,16.18377 2.1104,1.61279 7.8258,6.79719 12.7009,11.52087 27.4344,26.58273 19.9543,23.8682 69.4775,25.2093 19.8554,0.53736 23.9391,1.20207 24.3509,3.96404 0.5078,3.40545 -5.7699,4.65887 -21.7405,4.3407 -6.6131,-0.13176 -14.99,-0.29898 -18.6154,-0.37181 -3.6254,-0.0728 -8.9091,-0.41789 -11.7415,-0.76679 -2.8324,-0.34896 -7.6432,-0.57407 -10.6907,-0.50023 -9.965,0.24136 -13.4964,-1.60595 -22.4295,-11.73245 -3.468,-3.93153 -10.5763,-11.31294 -15.7958,-16.40284 -5.2197,-5.08996 -10.0673,-10.00064 -10.7723,-10.91264 -1.1217,-1.45064 -1.8651,-0.584 -5.9519,6.93803 -4.4349,8.16311 -10.6036,19.39487 -15.7812,28.73254 -1.2969,2.33914 -4.2472,7.2645 -6.5562,10.94527 -2.309,3.68078 -6.4558,10.86752 -9.2144,15.97056 -2.7592,5.10292 -6.7103,11.86839 -8.7798,15.03421 -4.8423,7.40641 -6.5066,10.15885 -9.3984,15.54402 -1.2983,2.41791 -2.8483,5.09284 -3.4441,5.94432 -2.0678,2.95446 -0.019,4.37612 9.3604,6.4968 5.1793,1.17097 9.9004,2.47275 10.4913,2.8929 0.5909,0.42011 1.6894,0.67214 2.441,0.56007 0.7517,-0.11208 4.2569,0.95768 7.7894,2.37724 3.5324,1.41956 7.0085,2.49367 7.7245,2.3869 1.7267,-0.25745 17.9735,5.38309 18.5635,6.44468 0.2534,0.45604 1.2608,0.70989 2.2386,0.56408 1.8035,-0.26891 13.3604,1.94117 19.4482,3.71901 1.8321,0.53507 3.8349,0.89775 4.4508,0.80591 0.6158,-0.0918 3.6184,0.67263 6.6723,1.69877 3.054,1.02612 10.5074,3.05621 16.5634,4.5113 6.0558,1.45511 11.0696,3.02141 11.1412,3.48079 0.069,0.45983 1.4231,2.36013 3.0031,4.224 3.0582,3.60783 3.224,6.00418 0.5081,7.34336 -0.9183,0.45277 -2.6603,1.49771 -3.8713,2.32221 -3.8188,2.59992 -20.1532,4.30634 -37.9313,3.96255 -9.2019,-0.17788 -18.2305,-0.31264 -20.0646,-0.29921 -1.8335,0.0133 -9.1206,-0.0376 -16.1937,-0.11322 -7.0732,-0.0755 -16.7092,-0.0169 -21.4139,0.13049 -4.7048,0.14738 -11.2503,-0.009 -14.5452,-0.34661 -3.2953,-0.33798 -10.4355,-0.34144 -15.8676,-0.008 -5.4319,0.33379 -10.4274,0.37026 -11.1015,0.0811 -1.6556,-0.71087 -8.9201,-0.65677 -38.8622,0.28927 -5.5348,0.17489 -12.2951,-0.0449 -15.0234,-0.48854 -2.7281,-0.44358 -5.5984,-0.44583 -6.3783,-0.005 -0.7799,0.44079 -3.3085,0.16711 -5.6191,-0.60815 -3.5843,-1.20264 -5.3118,-1.14848 -11.7662,0.36909 -5.7676,1.35605 -8.4941,1.54312 -11.4744,0.78727 -2.15,-0.54529 -7.1916,-0.79286 -11.2036,-0.55023 -4.012,0.24267 -9.6059,-0.13018 -12.4312,-0.82855 -2.8249,-0.69841 -6.1664,-0.90892 -7.4255,-0.46792 -1.259,0.44099 -4.221,0.73637 -6.5822,0.6564 -7.8096,-0.26455 -12.2733,-0.24425 -24.2479,0.11042 -6.5187,0.19306 -12.448,0.0955 -13.175,-0.21695 -1.5187,-0.65206 -7.938,-0.61232 -26.7218,0.16547 -13.8027,0.57152 -21.9623,0.69746 -39.1107,0.60343 -5.5653,-0.0305 -15.4926,0.52061 -22.0606,1.22463 -6.568,0.70402 -13.1163,1.03157 -14.5518,0.72792 -7.8033,-1.65075 -58.8659,-0.40858 -60.2537,1.46578 -0.1678,0.22662 -2.4678,0.1357 -5.1111,-0.20206 -2.6435,-0.33773 -6.0852,-0.71024 -7.6485,-0.82788 -1.5633,-0.11757 -3.9637,-1.17196 -5.3342,-2.34303 -1.9683,-1.68182 -3.4421,-1.98922 -7.0128,-1.46298 -25.5005,3.75875 -43.1446,-11.1804 -29.9781,-25.38245 2.971,-3.2046 5.4814,-6.31898 5.5787,-6.92082 0.273,-1.68801 -16.8097,-2.67085 -33.8585,-1.94803 -3.3155,0.14057 -7.4248,0.0436 -9.1316,-0.21555 -1.7069,-0.2591 -6.7293,-0.37741 -11.1608,-0.26291 -4.4316,0.11453 -12.6147,0.1581 -18.1846,0.0968 -5.57,-0.0613 -13.0735,-0.0377 -16.6746,0.0526 -11.4801,0.2876 -22.5783,0.21393 -27.3255,-0.18148 -5.1041,-0.42513 -11.5223,-0.48322 -27.3354,-0.24746 -5.8259,0.0869 -17.4361,0.0312 -25.8004,-0.12378 -22.6181,-0.41902 -36.8447,-0.49384 -57.0845,-0.30042 -4.1183,0.0394 -10.9593,-0.071 -15.2024,-0.24527 -4.243,-0.17428 -9.8884,0.007 -12.5457,0.40332 -2.6569,0.39606 -6.502,0.5443 -8.5449,0.32941 -6.7789,-0.71306 -21.1416,-0.99992 -51.3284,-1.02502 -6.1176,-0.005 -14.5501,-0.10848 -18.7388,-0.22977 -4.1887,-0.12128 -12.6203,-0.21889 -18.7368,-0.21681 -6.1166,0.002 -13.4051,-0.0576 -16.1967,-0.13241 -2.7915,-0.0749 -7.5628,-0.0347 -10.6027,0.0892 -3.04,0.12395 -8.7381,0.051 -12.6624,-0.16216 -8.6094,-0.46762 -36.8323,-0.96006 -46.6299,-0.81355 -3.8839,0.0581 -9.6156,-0.24044 -12.7371,-0.66341 -3.1215,-0.42296 -7.9117,-0.51008 -10.645,-0.19373 -2.7332,0.31645 -9.3109,0.44659 -14.6171,0.28926 -5.3062,-0.15735 -12.3772,-0.28364 -15.7132,-0.28072 -8.5173,0.008 -36.1496,-0.74784 -55.3281,-1.51241 -4.1955,-0.16726 -10.8057,-0.25449 -14.6892,-0.19389 -3.8835,0.0606 -12.3141,-0.0302 -18.7346,-0.20168 -6.4205,-0.17159 -18.2949,-0.4735 -26.3875,-0.67108 -8.0926,-0.19758 -16.0707,-0.61 -17.7281,-0.91683 -1.6579,-0.30669 -5.0629,-0.25775 -7.5666,0.1089 -2.5039,0.36627 -12.7636,0.52215 -22.7993,0.34576 -10.0358,-0.17638 -24.6109,-0.28305 -32.3891,-0.23693 -7.7783,0.0461 -16.6563,0.006 -19.7289,-0.0889 -3.0726,-0.095 -11.5074,-0.21416 -18.744,-0.26478 -14.6969,-0.10287 -31.8717,-0.37444 -45.605,-0.72128 -5.0237,-0.12686 -13.0096,-0.28692 -17.7465,-0.35568 -4.737,-0.0688 -13.9731,-0.25953 -20.525,-0.42377 -6.5519,-0.16433 -19.9882,-0.26216 -29.8585,-0.21752 -9.8703,0.0447 -20.9399,-0.16182 -24.5987,-0.45887 -3.6588,-0.29713 -9.5743,-0.30232 -13.1454,-0.0116 -3.5712,0.29078 -9.7042,0.35219 -13.6289,0.13654 -3.9247,-0.21567 -13.5088,-0.41399 -21.2979,-0.44066 -7.7891,-0.0267 -18.0342,-0.0817 -22.767,-0.12223 -4.7327,-0.0405 -21.1151,-0.0631 -36.4054,-0.0501 -15.2903,0.013 -31.2391,-0.15261 -35.4418,-0.36796 -4.2027,-0.21538 -10.8175,-0.33382 -14.6996,-0.26313 -7.1051,0.1293 -27.6126,-0.1401 -37.9889,-0.49894 -3.0743,-0.10634 -8.5458,-0.18493 -12.1588,-0.17478 -3.613,0.0102 -12.269,-0.067 -19.2356,-0.17165 -21.8889,-0.32879 -31.7177,-0.4328 -37.9746,-0.40222 -3.334,0.0163 -8.5825,-0.0928 -11.6633,-0.24248 -6.8342,-0.33214 -34.7446,-0.7645 -43.0693,-0.66724 -20.5311,0.24 -29.8736,0.2581 -34.366,0.0666 -2.7982,-0.1193 -11.0078,-0.25387 -18.2436,-0.29905 -7.2357,-0.0452 -15.6692,-0.15525 -18.7409,-0.24451 -5.4458,-0.15826 -24.707,-0.16144 -40.9488,-0.007 -11.0119,0.10486 -38.4458,-0.002 -49.5706,-0.19397 -5.0176,-0.0863 -15.264,-0.14925 -22.7696,-0.13973 -7.5057,0.01 -15.9384,-0.0959 -18.7395,-0.23422 -10.432,-0.51524 -20.42,-0.24943 -25.5692,0.68052 -3.2914,0.59444 -5.9887,0.53238 -7.1018,-0.16343 -0.9871,-0.61705 -5.8826,-1.07651 -10.8795,-1.02098 -4.9964,0.0555 -12.5117,9e-4 -16.7005,-0.12128 -4.1888,-0.12216 -12.1729,-0.27003 -17.7425,-0.32859 -5.5695,-0.0586 -12.4151,-0.19922 -15.2125,-0.31272 -2.7973,-0.11342 -8.4967,-0.19576 -12.6654,-0.18293 -4.1687,0.0128 -11.0071,-0.0792 -15.1964,-0.20452 -4.18926,-0.12535 -12.62182,-0.22948 -18.73902,-0.23155 -6.11718,-0.002 -14.55567,-0.14586 -18.7522,-0.31977 -7.13076,-0.29551 -29.80221,-0.443 -61.73428,-0.40169 -7.50564,0.01 -20.7124,-0.074 -29.34833,-0.18592 -8.63594,-0.11191 -21.39317,-0.23223 -28.3494,-0.26722 -6.95622,-0.035 -16.97646,-0.10733 -22.26719,-0.16076 -5.29073,-0.0534 -14.16783,-0.0875 -19.72689,-0.0759 -5.55906,0.0117 -18.32293,-0.15305 -28.36415,-0.36613 -10.04122,-0.21308 -29.20052,-0.55081 -42.57624,-0.75058 -13.37572,-0.19976 -27.75647,-0.52863 -31.95722,-0.73082 -7.63062,-0.36737 -45.28499,-1.25997 -55.8053,-1.32285 -6.09047,-0.0364 -13.78005,-0.15171 -46.61278,-0.69901 -11.98552,-0.19979 -24.74768,-0.35314 -28.36037,-0.34082 -6.63541,0.0227 -41.4651,-0.37766 -47.0948,-0.5414 -8.40149,-0.24424 -39.29577,-0.82782 -44.6121,-0.84274 -3.33788,-0.009 -11.98753,-0.0437 -19.22142,-0.0762 -20.34397,-0.0916 -38.11567,-0.1281 -53.60238,-0.11027 -7.7838,0.009 -18.4804,-0.0225 -23.77024,-0.07 -5.28984,-0.0474 -14.61205,-0.0154 -20.71602,0.0712 -6.10397,0.0866 -15.50788,0.14707 -20.89866,0.13465 -41.37059,-0.0964 -117.74868,31.99714 -156.44609,65.73605 -2.81293,2.45276 -5.77561,4.86001 -6.58377,5.34945 -0.80813,0.48937 -3.80834,3.05535 -6.66706,5.70219 -2.85871,2.64684 -6.58227,5.96698 -8.27444,7.37827 -1.69219,1.41119 -4.12417,3.86519 -5.40427,5.45324 -1.2801,1.58805 -4.30611,4.87445 -6.72439,7.30305 -2.41828,2.4286 -7.63887,8.56784 -11.60081,13.64304 -3.96242,5.07475 -8.13551,9.831 -9.27365,10.56942 -1.13796,0.73834 -2.19581,2.08847 -2.35072,3.00039 -0.2511,1.47799 -11.4984,11.25816 -15.90517,13.83089 -0.94089,0.5492 -2.97679,2.27943 -4.52411,3.84504 -1.54744,1.56553 -4.59027,4.09777 -6.761962,5.62717 -5.677435,3.99821 -5.10791,4.62609 7.036632,7.7591 3.75913,0.96982 8.36456,2.58073 10.23428,3.58002 1.8697,0.99919 3.74252,1.76567 4.16169,1.70317 0.41919,-0.0625 5.73546,1.43241 11.81411,3.32211 10.39908,3.23282 32.03335,8.15093 53.21184,12.09673 5.14774,0.95911 44.47981,5.38007 87.40444,9.82324 42.92477,4.44416 79.89544,8.28482 82.15707,8.53502 2.26162,0.25014 9.42893,1.02273 15.92736,1.71685 6.49842,0.69412 13.2079,1.44756 14.90997,1.67442 1.70206,0.2268 5.84666,0.56099 9.21024,0.74272 3.36358,0.18172 8.20493,0.61165 10.75856,0.95551 2.55363,0.34382 6.46385,0.63173 8.68936,0.63971 4.97748,0.018 18.36527,1.149 30.75964,2.59907 5.11641,0.59849 10.23014,0.94977 11.36341,0.78079 1.13357,-0.16902 4.11274,0.10082 6.62042,0.5996 2.50758,0.49884 11.69302,1.45222 20.41165,2.11871 8.71863,0.66648 18.38312,1.40436 21.47664,1.63961 32.41607,2.46552 109.29802,6.86811 145.31586,8.31917 16.12114,0.65 19.62527,0.7301 46.16038,1.05533 7.52083,0.0921 36.71483,0.59924 64.87554,1.12664 28.16073,0.5276 52.09389,0.84265 53.18479,0.70001 1.0909,-0.14255 5.7375,-0.37115 10.326,-0.50791 10.4443,-0.3113 13.16098,-1.32179 12.65624,-4.70688 -1.21038,-8.11745 25.22608,-21.62877 40.39684,-20.64637 2.52676,0.16359 7.10573,0.35959 10.17551,0.4356 19.19597,0.47513 35.83225,8.37716 34.61614,16.44068 -0.91713,6.07822 4.6349,8.20548 16.28532,6.23991 1.89852,-0.32029 5.75381,-0.40075 8.56732,-0.17874 2.8135,0.22196 8.69633,0.008 13.07295,-0.47465 4.37662,-0.48302 15.22703,-0.94568 24.11203,-1.02812 8.88499,-0.0824 17.738,-0.20985 19.6734,-0.28317 3.5302,-0.13371 11.6781,-0.28194 26.7205,-0.48579 4.4397,-0.0602 11.9192,-0.24539 16.6211,-0.41163 12.1616,-0.42976 30.7836,-0.70499 37.3268,-0.55149 3.0692,0.072 12.1399,-0.12088 20.1572,-0.42861 8.0173,-0.30771 16.4328,-0.31795 18.7011,-0.0226 2.2684,0.29526 5.2485,0.44778 6.6224,0.33886 8.0364,-0.637 24.0625,-0.94683 26.716,-0.51645 1.7096,0.27722 6.0089,0.12308 9.5539,-0.34254 3.5451,-0.46561 8.7373,-0.73402 11.5383,-0.59644 2.8009,0.13754 8.2645,0.16415 12.1414,0.0591 7.0563,-0.19117 11.2809,-0.15214 28.3487,0.26258 13.2889,0.32282 30.0429,-0.0791 48.8615,-1.17187 23.1268,-1.34297 31.166,-1.5103 34.6798,-0.72167 1.6724,0.37541 8.4853,0.29645 15.1396,-0.17548 6.6543,-0.47192 14.3936,-0.72425 17.1984,-0.5607 2.8048,0.16356 10.7593,0.11298 17.6767,-0.11244 24.6159,-0.80216 29.7816,-0.85446 36.5419,-0.37036 3.7646,0.26952 8.6737,0.2173 10.9092,-0.11603 2.2357,-0.33336 5.9963,-0.44584 8.3571,-0.24999 2.3607,0.19587 9.2552,0.0757 15.3212,-0.26694 18.5302,-1.04694 35.9302,-1.5371 40.7764,-1.14906 7.7735,0.62269 16.9462,0.53467 37.3556,-0.35853 18.4708,-0.80825 26.1546,-0.96556 39.3113,-0.80411 8.9012,0.10916 19.3283,-0.14255 40.2971,-0.97295 10.7799,-0.42687 21.8866,-0.69689 24.6814,-0.59991 2.7949,0.0969 12.3065,-0.19051 21.1369,-0.6388 8.8305,-0.44828 20.1555,-0.7794 25.1667,-0.73586 8.3216,0.0724 14.7158,-0.13604 38.2836,-1.24771 4.4445,-0.20964 8.9952,-0.23425 10.1125,-0.0547 1.1176,0.17956 7.9128,0.13086 15.1002,-0.10812 7.1877,-0.23906 16.0325,-0.39202 19.6548,-0.33985 9.3986,0.13529 28.0776,-0.16513 32.7807,-0.52708 2.1991,-0.16927 6.7453,-0.19312 10.1026,-0.053 3.3574,0.14013 9.9531,0.13067 14.6572,-0.0211 4.7041,-0.15175 12.4037,-0.38628 17.1102,-0.52127 4.7066,-0.13496 13.0793,-0.43212 18.6061,-0.66049 5.5267,-0.22829 12.2598,-0.31338 14.9617,-0.18898 2.7023,0.12431 6.4081,0.003 8.235,-0.26928 1.827,-0.27242 7.5627,-0.47776 12.7461,-0.45635 46.6192,0.19294 52.0646,-0.52003 49.8555,-6.52763 -0.7413,-2.01633 -1.3379,-4.34997 -1.3257,-5.1859 0.034,-2.33148 6.713,-11.11152 8.675,-11.40407 0.9562,-0.14258 3.1066,-1.10466 4.7787,-2.13793 4.8843,-3.01842 18.523,-6.812 21.8797,-6.08591 1.5779,0.34132 5.0419,0.55592 7.6976,0.47701 17.5288,-0.5213 37.7237,12.17271 34.3543,21.59463 -0.5126,1.43379 -0.338,2.96417 0.5107,4.47674 1.5348,2.73536 4.8237,2.90205 46.4186,2.35274 10.5447,-0.13924 25.5376,-0.28211 33.3175,-0.31745 7.7798,-0.0353 19.5781,-0.2436 26.2184,-0.46288 23.3356,-0.77029 35.8271,-0.84493 37.6505,-0.22486 1.0125,0.34438 5.5839,0.10556 10.1588,-0.53077 4.5747,-0.63632 12.6905,-1.12787 18.0361,-1.09256 18.0206,0.11917 25.8513,0.0177 34.4136,-0.44579 4.6888,-0.25382 12.6028,-0.57633 17.5866,-0.71657 4.9838,-0.14031 15.84,-0.56441 24.1248,-0.94237 8.2849,-0.37802 19.8309,-0.75253 25.6578,-0.83224 5.827,-0.0797 16.0074,-0.45855 22.6233,-0.84182 6.6158,-0.38332 14.3158,-0.61479 17.1112,-0.51445 2.7954,0.10038 9.6038,-0.008 15.1298,-0.24144 9.7682,-0.41219 25.779,-0.99641 44.2457,-1.6144 4.9799,-0.16666 13.5763,-0.48964 19.1031,-0.71781 5.5268,-0.22812 12.1122,-0.30663 14.6343,-0.17443 5.1489,0.2699 28.3844,-0.17589 35.286,-0.67679 2.4756,-0.1797 8.1294,-0.40365 12.564,-0.49765 4.4346,-0.094 14.1711,-0.39928 21.6365,-0.67832 7.4655,-0.27904 20.165,-0.54585 28.2212,-0.59286 24.3887,-0.14234 28.3984,-0.22438 38.3032,-0.78383 5.2387,-0.2959 12.1659,-0.40088 15.3939,-0.23321 3.2283,0.16759 6.2354,-0.004 6.6825,-0.3823 0.4472,-0.37785 5.5118,-0.70717 11.2552,-0.73187 21.6298,-0.0929 24.8051,-0.17684 33.5701,-0.88814 4.9449,-0.40131 14.3325,-0.86266 20.8619,-1.02518 6.5291,-0.16254 12.2241,-0.59396 12.656,-0.95873 0.4316,-0.36476 3.481,-0.40417 6.7764,-0.0875 3.2954,0.31661 12.3178,0.0892 20.0507,-0.50555 7.7325,-0.59465 15.2674,-0.81694 16.7442,-0.4939 5.1665,1.12981 38.5459,-3.10307 40.2474,-5.10389 4.1848,-4.91905 9.3528,-5.82745 48.0213,-8.44074 29.6257,-2.00201 47.6497,-3.30419 54.5153,-3.93834 7.6694,-0.70841 39.5071,-2.95562 56.5296,-3.99007 6.6131,-0.40186 21.432,-1.71105 32.9311,-2.90939 22.551,-2.34997 43.9434,-4.18392 65.3882,-5.60569 7.4336,-0.49283 19.8064,-1.42538 27.4951,-2.07225 30.1116,-2.53359 30.6122,-2.52603 32.9258,0.50016 1.1355,1.48527 5.2142,4.1969 9.0638,6.02598 3.8496,1.82907 9.6923,5.17761 12.9843,7.44107 3.2916,2.26362 6.4211,4.05052 6.9544,3.971 0.5333,-0.0795 3.747,1.37495 7.1415,3.23214 6.6859,3.65809 18.3408,9.47474 23.7126,11.83434 1.845,0.81056 8.2206,4.18217 14.1678,7.49248 9.2871,5.16919 17.0303,9.42549 30.6805,16.86372 1.6136,0.87926 4.38,2.14046 6.1477,2.80271 1.7676,0.66228 7.8476,3.80283 13.511,6.97895 19.7216,11.05943 34.3013,18.72306 45.3437,23.83344 10.1442,4.69438 13.5179,6.38129 17.3043,8.65262 1.9304,1.15796 6.4562,3.55674 10.0572,5.33077 3.601,1.77404 12.2267,6.22481 19.1682,9.89028 6.9415,3.66576 15.0399,7.63149 17.9964,8.81229 2.9565,1.1812 8.348,4.26318 11.981,6.84876 3.633,2.5856 6.9564,4.64883 7.3852,4.58488 0.4289,-0.0639 4.2586,2.24723 8.5107,5.13604 4.2519,2.88873 9.945,6.3712 12.6516,7.73869 5.6464,2.85328 19.0245,11.18462 29.7651,18.536 l 7.3723,5.04604 -0.7302,4.07412 c -1.5797,8.81466 3.046,7.31215 -59.7231,19.39893 -62.2244,11.9816 -71.0322,12.47293 -96.7619,5.39852 -5.7151,-1.57143 -20.7498,-5.09155 -27.2384,-6.37769 -4.0111,-0.79495 -10.8096,-2.14568 -15.1079,-3.00155 -4.2982,-0.85587 -14.2105,-3.25557 -22.0273,-5.33259 -7.8167,-2.07701 -15.5951,-3.89647 -17.2853,-4.04332 -1.6901,-0.14677 -4.7441,-0.79484 -6.7866,-1.44008 -2.0425,-0.64527 -10.2614,-2.36826 -18.2643,-3.82888 -8.003,-1.46062 -23.538,-4.95415 -34.5225,-7.76361 -10.9844,-2.80917 -21.3613,-5.27346 -23.0597,-5.47609 -3.8072,-0.45419 -34.3571,-7.97026 -39.0436,-9.60599 -1.8774,-0.65518 -3.9109,-1.11705 -4.519,-1.02638 -0.6081,0.0907 -7.8226,-1.61015 -16.0327,-3.77947 -8.2098,-2.16936 -20.5545,-5.07051 -27.4327,-6.44678 -25.4493,-5.09249 -33.062,-6.72969 -36.0577,-7.75309 -1.6879,-0.57673 -3.7873,-0.94146 -4.6651,-0.81057 -0.8778,0.1309 -4.3002,-0.54781 -7.6053,-1.50829 -6.1966,-1.80082 -33.7112,-8.62263 -52.1637,-12.93344 -5.7615,-1.34593 -12.839,-3.0419 -15.7278,-3.76892 -2.8888,-0.72692 -7.1265,-1.68533 -9.4171,-2.12978 -2.2906,-0.44438 -5.1177,-1.09695 -6.2826,-1.45022 -3.088,-0.93642 -25.1852,-5.80341 -40.2474,-8.86435 -7.1682,-1.45678 -15.2896,-3.39363 -18.049,-4.30374 -2.7586,-0.91032 -5.7166,-1.55049 -6.5734,-1.42273 -0.8567,0.12775 -4.5126,-0.64201 -8.1243,-1.71045 -8.2991,-2.45533 -21.4694,-0.80425 -25.9331,3.25098 -2.312,2.10002 -4.5508,2.67225 -20.1362,5.1469 -9.6444,1.53137 -18.0307,3.20294 -18.6359,3.71464 -1.6546,1.3981 -31.6736,8.72514 -63.8235,15.57805 -3.7726,0.80416 -11.2418,2.58444 -16.598,3.9562 -5.3563,1.37174 -15.4512,3.84979 -22.4332,5.5067 -56.7376,13.46484 -80.6687,19.73449 -83.0698,21.76307 -0.3729,0.31514 -9.2784,2.14687 -19.7901,4.0705 -10.5112,1.92361 -19.3563,3.70425 -19.6553,3.95689 -0.299,0.25268 -4.054,1.06173 -8.3444,1.79791 -4.2904,0.73618 -7.9743,1.69977 -8.1865,2.14134 -3.2739,6.81251 -486.3591,85.15913 -505.557,87.54648 -26.2814,4.47468 -40.0973,6.77473 -59.7418,8.61462 -20.2739,1.82218 -19.0579,1.20298 -21.0859,10.73822 -4.1309,19.42461 -8.7131,44.52283 -8.775,48.06772 -0.039,2.23019 -0.5035,5.59271 -1.0315,7.47223 -1.443,5.13678 9.0913,13.98414 32.1794,27.02477 4.8962,2.76556 12.9248,7.53699 17.8427,10.60253 4.9172,3.06595 13.474,8.23596 19.0144,11.48945 5.5406,3.25346 15.0693,8.907 21.1755,12.5645 6.106,3.6568 15.8323,9.3858 21.6137,12.7297 5.7815,3.3447 14.291,8.5418 18.9099,11.5485 4.6189,3.007 13.7668,8.4915 20.3278,12.1884 6.5613,3.6969 13.8438,7.801 16.1839,9.1199 2.3399,1.3194 9.4793,5.4871 15.8654,9.2615 6.3859,3.7745 14.2077,8.2954 17.3807,10.0466 9.7491,5.3794 18.9191,10.9122 29.1774,17.6056 5.4004,3.5235 10.2466,6.3425 10.7695,6.2645 0.523,-0.078 4.9232,2.337 9.7784,5.3666 12.6505,7.8937 19.8593,12.1318 36.7104,21.583 8.1922,4.5946 22.8851,13.1195 32.6509,18.9439 9.7657,5.8245 24.4302,14.4501 32.5862,19.1689 14.3237,8.2862 31.7682,18.6387 44.4761,26.3954 3.3647,2.0538 11.8343,6.9835 18.8214,10.9551 6.9871,3.9713 15.2106,8.7757 18.2743,10.6757 3.0637,1.9004 11.8087,7.1507 19.4332,11.6676 7.6244,4.5165 15.1133,8.9712 16.6418,9.8989 2.5063,1.5214 19.1893,10.7304 26.662,14.7169 8.7976,4.6936 19.7478,11.1334 24.7138,14.5352 3.0967,2.121 8.8304,5.4847 12.7417,7.4748 3.9113,1.9901 10.1416,5.46 13.8456,7.7108 3.7036,2.251 10.3237,6.0597 14.7111,8.464 4.3875,2.4043 13.244,7.4533 19.6809,11.2202 6.4368,3.7669 15.5412,9.0065 20.2314,11.6437 21.1222,11.8748 31.4356,17.9138 65.365,38.2787 6.3081,3.7861 24.72,14.5767 40.9147,23.9792 16.1948,9.4024 31.7003,18.4881 34.4564,20.1902 2.7562,1.7022 8.093,4.7888 11.8593,6.8594 28.1586,15.4784 25.4786,18.8981 -23.9689,30.5893 -6.4457,1.5241 -16.1058,3.8671 -21.4668,5.207 -5.361,1.3399 -18.3244,4.414 -28.8075,6.8315 -10.4831,2.4173 -29.832,6.9108 -42.9975,9.9853 -21.8094,5.0932 -36.4723,8.412 -58.1939,13.1716 -4.3078,0.944 -14.2184,3.1332 -22.0233,4.8648 -19.7625,4.3848 -37.5723,8.2218 -58.7752,12.6629 -9.9759,2.0895 -19.2181,4.184 -20.5382,4.6544 -1.32,0.4705 -3.6003,0.4345 -5.0672,-0.08 z m 22.0648,-18.1485 c 9.7124,-1.992 24.4992,-5.0431 32.8594,-6.7802 8.3602,-1.7372 16.3149,-3.3123 17.6771,-3.5004 2.9121,-0.4018 39.7767,-9.0401 45.4269,-10.6444 8.3288,-2.3649 44.9738,-10.3941 64.129,-14.0512 26.5468,-5.0683 66.4888,-13.7459 74.6171,-16.2111 3.56,-1.0797 10.9636,-2.6328 16.4519,-3.4511 13.6462,-2.0348 12.0987,-6.3645 -5.1459,-14.3986 -7.1304,-3.322 -22.3367,-11.9576 -27.6226,-15.6878 -2.7966,-1.9731 -6.9255,-4.5897 -9.1751,-5.8148 -6.6284,-3.6092 -30.8844,-17.9737 -36.471,-21.5975 -2.8342,-1.8387 -8.4976,-5.3468 -12.5853,-7.7958 -4.0876,-2.4489 -11.5471,-7.0238 -16.5766,-10.1665 -5.0296,-3.1426 -15.3676,-9.3074 -22.9737,-13.7007 -7.606,-4.3925 -16.0728,-9.3033 -18.8152,-10.9135 -2.7424,-1.6097 -9.4471,-5.3823 -14.8993,-8.3833 -5.4522,-3.0013 -11.7065,-6.5871 -13.8972,-7.969 -2.1913,-1.3816 -7.1066,-4.3214 -10.9229,-6.5327 -3.8162,-2.2114 -10.623,-6.2012 -15.1259,-8.8662 -10.4261,-6.1705 -18.9149,-10.8289 -22.923,-12.58 -1.7303,-0.756 -3.7484,-1.82 -4.4847,-2.3644 -0.7363,-0.5446 -3.7619,-2.4487 -6.7234,-4.2314 -2.9615,-1.7828 -7.4682,-4.5231 -10.0146,-6.0897 -2.5466,-1.5666 -7.0696,-4.1962 -10.0511,-5.8435 -2.9817,-1.6474 -10.5678,-5.9759 -16.8579,-9.619 -6.2904,-3.6432 -13.359,-7.7022 -15.7071,-9.0202 -12.786,-7.1753 -23.135,-13.2905 -28.695,-16.9535 -9.7638,-6.4334 -25.5327,-16.0197 -33.9981,-20.6701 -4.2398,-2.3285 -10.4781,-6.025 -13.863,-8.2143 -6.6564,-4.3057 -18.1698,-11.1483 -28.3855,-16.8713 -3.5281,-1.9763 -9.0239,-5.2516 -12.213,-7.2784 -3.1891,-2.0269 -7.9106,-4.7352 -10.4924,-6.0185 -2.5817,-1.2833 -7.5289,-4.1854 -10.9936,-6.4492 -3.4649,-2.2637 -10.9488,-6.835 -16.631,-10.1584 -5.6823,-3.3233 -14.6305,-8.6084 -19.8846,-11.7449 -5.2545,-3.1364 -11.9208,-6.9197 -14.8148,-8.407 -2.8936,-1.4875 -6.8362,-3.5184 -8.7614,-4.5133 -1.9251,-0.995 -5.5305,-3.2194 -8.0118,-4.9433 -6.1929,-4.3023 -14.7323,-9.2565 -19.9225,-11.5582 -2.3818,-1.0564 -5.3463,-2.6144 -6.5876,-3.4623 -8.2192,-5.6137 -23.9572,-14.6551 -37.5259,-21.5595 -2.5357,-1.2902 -10.5932,-6.0906 -17.906,-10.6679 -7.3126,-4.577 -16.8223,-10.0854 -21.1333,-12.2402 -4.3107,-2.155 -8.1622,-4.3023 -8.559,-4.7718 -0.3968,-0.4695 -3.1662,-1.2666 -6.1544,-1.7712 -2.9881,-0.5047 -5.938,-1.2045 -6.5553,-1.5551 -0.6173,-0.3506 -19.0675,-5.0853 -41,-10.5215 -21.9326,-5.4364 -46.2576,-11.4785 -54.0551,-13.4259 -7.7976,-1.9481 -17.6907,-4.2196 -21.9848,-5.0477 -4.2941,-0.8281 -9.2451,-1.9934 -11.0022,-2.5894 -1.7571,-0.5962 -6.9243,-1.6858 -11.4827,-2.42139 -4.5583,-0.7356 -22.0522,-3.63554 -38.8754,-6.44422 -16.8232,-2.80867 -31.9386,-5.21643 -33.5894,-5.35083 -1.6513,-0.13406 -4.2335,-0.66959 -5.7383,-1.18995 -1.5049,-0.52043 -3.7514,-0.79767 -4.9922,-0.6161 -1.2408,0.18199 -4.9603,-0.35192 -8.2652,-1.18553 -3.3051,-0.83359 -7.6124,-1.58831 -9.5719,-1.6771 -1.9595,-0.0888 -5.6529,-0.44802 -8.2075,-0.79841 -2.5546,-0.35032 -8.5434,-0.8476 -13.3085,-1.10518 -4.7651,-0.2575 -14.6366,-0.85772 -21.9366,-1.33383 -15.2249,-0.99293 -43.1841,-1.51793 -54.2434,-1.01858 -4.1427,0.18705 -10.7215,0.30997 -14.6195,0.27324 -24.2742,-0.22891 -53.6043,1.96541 -81.492,6.09678 -33.3144,4.93529 -111.3948,19.5505 -129.3241,24.2072 l -6.7903,1.7636 -9.3594,-4.2492 c -5.1477,-2.3371 -10.097,-4.5942 -10.999,-5.0158 -0.9015,-0.4216 -14.1315,-6.63846 -29.3999,-13.8152 -15.2684,-7.17674 -31.5824,-14.72128 -36.2538,-16.7647 -4.6715,-2.0439 -9.2765,-4.38952 -10.2334,-5.21251 -0.9568,-0.82296 -3.4256,-2.12381 -5.4863,-2.8908 -12.4751,-4.64317 -16.2775,-6.30993 -17.6188,-7.72409 -0.8268,-0.87159 -3.7475,-2.54949 -6.4905,-3.72866 -5.3397,-2.29541 -56.5875,-26.62577 -68.3792,-32.46258 -10.5075,-5.20197 -15.0002,-8.99921 -12.8236,-10.83832 2.2792,-1.9261 39.0994,-16.48453 54.0253,-21.36209 4.242,-1.38604 10.505,-3.62671 13.9178,-4.97922 9.5722,-3.79356 59.1279,-18.4073 67.793,-19.99183 1.3533,-0.24748 9.265,-2.11107 17.5815,-4.14135 15.2068,-3.71235 21.2438,-4.95334 46.5968,-9.57892 19.7545,-3.60411 61.3374,-8.13879 85.1755,-9.28852 19.5477,-0.94276 25.9175,-1.03011 52.3527,-0.71708 6.4063,0.0758 13.2416,0.14748 15.1896,0.15932 1.9481,0.0118 6.2843,0.10527 9.636,0.20778 3.3518,0.10248 9.1022,0.10438 12.7784,0.004 3.6764,-0.10019 7.1869,0.0335 7.8009,0.29719 0.9412,0.40407 21.5875,1.4609 42.9845,2.20021 3.0743,0.10623 14.7678,0.72097 25.9856,1.36605 11.2178,0.64509 23.3758,1.32318 27.0177,1.50679 17.3079,0.87251 26.4347,1.56438 31.1897,2.36418 2.8519,0.47968 7.6864,0.86367 10.7433,0.85333 3.0569,-0.0103 9.258,0.38526 13.7803,0.87903 4.5223,0.49376 12.9775,1.33309 18.7895,1.86506 5.8121,0.53197 11.0781,1.18641 11.7024,1.45426 0.624,0.26792 4.6545,0.78121 8.9568,1.14075 4.3023,0.35952 9.6703,0.84176 11.9285,1.07174 2.2586,0.22991 9.6212,0.78659 16.3613,1.237 6.7402,0.45051 14.5735,1.11271 17.4074,1.4715 22.8331,2.89135 37.9376,3.88373 38.7807,2.54738 7.1035,-11.2668 1.0622,-26.9554 -11.1647,-28.99248 -2.9731,-0.49544 -6.8284,-1.28856 -8.5673,-1.76239 -3.4073,-0.92855 -117.558,-17.30812 -126.0456,-18.08689 -2.819,-0.25851 -7.5685,-0.51607 -10.5549,-0.57246 -2.9859,-0.0564 -7.1579,-0.57375 -9.2709,-1.14972 -2.1131,-0.57597 -6.1227,-1.08713 -8.9104,-1.13585 -2.7876,-0.0487 -8.3197,-0.53387 -12.2934,-1.07809 -3.9737,-0.54422 -14.1015,-1.33837 -22.5063,-1.76482 -19.0539,-0.96665 -31.8478,-2.00368 -54.6458,-4.42942 -9.8288,-1.04561 -19.4434,-1.66666 -21.3662,-1.37996 -1.9226,0.28668 -4.9253,0.30438 -6.6725,0.0393 -9.0011,-1.36547 -15.4842,-1.83672 -25.1148,-1.8251 -10.8861,0.013 -21.2005,-0.20798 -39.0504,-0.8367 -13.1491,-0.46317 -34.8795,-0.0958 -41.8533,0.70775 -3.0067,0.34642 -8.4335,0.56753 -12.0594,0.49136 -3.6258,-0.0762 -10.4091,0.20112 -15.0739,0.61621 -4.6648,0.4151 -10.5172,0.83298 -13.0053,0.92862 -32.1864,1.23721 -108.2039,10.70852 -144.4254,17.99444 -7.5585,1.52034 -20.1563,3.99469 -27.9952,5.49859 -7.8389,1.50388 -17.9676,3.75558 -22.5082,5.00376 -4.5406,1.24819 -11.1091,2.96586 -14.5967,3.81711 -3.4876,0.8512 -28.5341,9.85166 -55.6589,20.00113 -27.1248,10.14937 -52.2587,19.24845 -55.8525,20.2211 -21.1943,5.73267 -19.9537,20.01355 2.5089,28.86966 9.0276,3.55906 20.4935,8.80395 23.1757,10.60002 4.0032,2.68215 11.4247,5.57185 13.5096,5.26097 1.0797,-0.16099 2.5215,0.45822 3.204,1.37603 0.6825,0.91781 5.0563,3.44517 9.7198,5.61647 4.6632,2.17121 9.9501,4.66155 11.7486,5.53396 32.1618,15.60347 43.5929,20.88641 57.2369,26.45209 6.685,2.72713 13.6653,5.93902 15.5122,7.13744 1.847,1.19842 7.7453,4.13992 13.1074,6.53674 21.3649,9.54957 41.5407,18.85384 47.7711,22.02872 3.6109,1.8403 7.7513,3.6708 9.2009,4.06785 1.4496,0.39707 3.356,1.36671 4.2365,2.15478 0.8805,0.78803 2.145,1.35164 2.8101,1.25246 0.6651,-0.0992 2.1645,0.60372 3.3321,1.56197 1.1677,0.95825 4.2874,2.33725 6.9328,3.06445 2.6453,0.7273 14.7626,6.0699 26.9254,11.873 12.1637,5.8026 24.7962,11.6293 28.0714,12.9477 3.2752,1.3182 7.7601,3.3794 9.9662,4.5803 4.1825,2.2766 6.854,3.4155 13.1128,5.59 2.0526,0.7131 6.6968,2.8726 10.3206,4.799 3.6237,1.9262 9.9252,4.9575 14.0035,6.7362 4.0782,1.7786 9.265,4.0954 11.5263,5.1484 2.2613,1.0531 6.4691,2.9001 9.3507,4.1046 2.8816,1.2045 6.651,3.0312 8.3764,4.0594 1.7254,1.0282 4.3704,1.9848 5.8778,2.126 1.5074,0.1411 4.7886,1.4716 7.2917,2.9566 2.5029,1.4852 5.1229,2.6149 5.8221,2.5107 0.699,-0.1043 3.3814,1.2019 5.9606,2.9026 4.4873,2.9588 6.0827,3.7232 16.496,7.9037 2.5251,1.0136 8.1882,3.6584 12.5844,5.8772 12.5187,6.3182 13.8824,6.9815 25.3083,12.3112 5.9198,2.7612 12.32,5.5548 14.2221,6.2081 1.9024,0.6532 6.0774,2.4271 9.2777,3.942 3.2004,1.5149 8.4118,3.8798 11.5807,5.2553 3.1691,1.3756 8.5404,4.0633 11.9363,5.9727 3.3958,1.9095 6.5823,3.4108 7.0811,3.3365 0.4989,-0.074 2.2258,0.5978 3.8375,1.494 4.764,2.6486 27.5438,13.0364 28.3301,12.9192 0.3981,-0.059 2.1853,0.8288 3.9718,1.9738 1.7864,1.1451 5.6719,3.0807 8.6343,4.3015 2.9624,1.2208 6.6201,2.8662 8.1281,3.6563 1.508,0.7903 5.4226,2.6329 8.699,4.0947 6.0804,2.7129 13.6468,6.2221 23.3526,10.8305 9.9024,4.7021 26.9556,12.3193 38.9952,17.4185 6.5292,2.7653 13.1068,5.6851 14.6167,6.4884 1.51,0.8032 10.8002,5.1332 20.6449,9.6226 9.8447,4.4889 19.138,8.8402 20.6519,9.67 1.5139,0.8295 4.6734,2.185 7.021,3.0123 2.3477,0.8273 5.2787,2.1765 6.5134,2.9983 1.2347,0.8218 5.2386,2.7897 8.8976,4.3728 3.659,1.5832 13.1048,6.0112 20.9907,9.8399 7.8858,3.8289 15.8865,7.613 17.7795,8.4089 11.7612,4.9472 72.6085,32.4153 88.3209,39.8716 10.3438,4.9082 22.2868,10.2463 26.5396,11.8617 15.8,6.0024 59.8471,26.2732 63.2123,29.0898 1.9164,1.6044 5.9986,4.012 9.0714,5.3501 3.0728,1.3383 19.9345,9.1987 37.4697,17.4671 17.5351,8.2684 49.4864,23.2461 71.002,33.2837 41.7685,19.4862 70.9627,33.2239 134.2872,63.1887 21.8378,10.3334 41.4136,19.3641 43.5023,20.0678 2.0884,0.7038 4.5508,1.9615 5.472,2.7949 4.4507,4.0263 14.4887,7.4204 18.5114,6.259 2.1578,-0.623 11.8694,-2.7625 21.5819,-4.7544 z m -726.6164,-97.9212 c 5.7901,-11.8798 6.5166,-14.4845 6.7613,-24.2524 0.8479,-33.8309 -17.2013,-86.408 -29.0563,-84.6403 -7.5087,1.1196 -14.9944,23.7561 -12.6611,38.2859 0.2176,1.3577 1.3627,9.3765 2.5444,17.8196 4.0154,28.6996 10.592,45.1769 22.3929,56.104 5.0328,4.6602 6.3415,4.2269 10.0183,-3.3174 z m 70.115,-100.9219 c 93.0623,-14.8992 109.0636,-17.8265 108.7551,-19.8953 -0.1482,-0.994 0.7345,-2.7023 1.9616,-3.7962 1.2271,-1.0938 2.1782,-2.3437 2.1135,-2.7773 -0.1526,-1.0233 -13.8499,-8.0179 -15.2821,-7.8043 -0.6016,0.09 -2.325,-0.4046 -3.8298,-1.0984 -3.368,-1.5529 -8.6375,-0.9592 -79.9558,9.0084 -29.1429,4.0732 -54.1072,7.5229 -55.476,7.666 -30.2541,3.1648 -40.7282,7.0326 -35.6024,13.147 2.022,2.4119 4.7464,6.2731 6.0542,8.5805 4.3622,7.696 5.9284,8.3658 14.9957,6.413 4.3332,-0.9332 29.652,-5.1826 56.2646,-9.4432 z m -406.1265,-91.3747 c 12.6467,-15.4096 1.8168,-80.6569 -15.4737,-93.2264 -8.0394,-5.8443 -17.8654,0.42 -16.3717,10.4374 0.1839,1.2334 -0.2777,4.7392 -1.0258,7.7907 -1.8865,7.6951 4.0438,50.52 7.5243,54.3364 1.1451,1.2556 2.6946,4.4369 3.4435,7.0695 0.7489,2.6325 2.0171,5.3713 2.8182,6.0859 0.8009,0.7147 2.67,3.0221 4.1535,5.1275 4.7221,6.7019 10.6141,7.6408 14.9321,2.3792 z M 3255.6727,798.66976 c 13.2449,-2.54263 30.9483,-5.86651 39.3409,-7.38635 36.7434,-6.65418 39.489,-7.64048 31.1876,-11.20458 -2.08,-0.89302 -4.4514,-2.30341 -5.2699,-3.13439 -0.8186,-0.83089 -3.3091,-2.2792 -5.5345,-3.21848 -2.2253,-0.93928 -4.0938,-2.02783 -4.1521,-2.419 -0.058,-0.39114 -2.3821,-1.71374 -5.1639,-2.93898 -2.7819,-1.22533 -5.6064,-2.62267 -6.2766,-3.1053 -0.6703,-0.48261 -5.9206,-3.42308 -11.6673,-6.5344 -5.7466,-3.11131 -11.6974,-6.3575 -13.2254,-7.21362 -2.7026,-1.51529 -11.2174,-3.15085 -29.1266,-5.59496 -4.8249,-0.65844 -9.2576,-1.55169 -9.8505,-1.98509 -0.5929,-0.43335 -1.9156,-0.66302 -2.9394,-0.51036 -1.0238,0.15265 -5.2103,-0.31009 -9.3034,-1.02831 -4.0931,-0.71822 -12.0966,-2.00969 -17.7857,-2.86999 -5.6891,-0.86019 -17.7961,-2.72245 -26.9045,-4.13815 -9.1084,-1.4158 -36.09,-5.39351 -59.9593,-8.84001 -23.8692,-3.44602 -48.5424,-7.06941 -54.829,-8.05201 -6.315,-0.9895 -11.9835,-1.71143 -12.5769,-1.62294 -0.6117,0.0912 -1.3428,-0.28877 -1.6249,-0.8444 -0.282,-0.5556 -8.3556,-1.81225 -17.9411,-2.79274 -9.5857,-0.98035 -18.8689,-2.28919 -20.6295,-2.90852 -1.7606,-0.6193 -3.901,-1.02449 -4.7567,-0.90024 -1.7992,0.2612 -10.3193,-1.06143 -14.9331,-2.31805 -1.7389,-0.47356 -5.6912,-1.04409 -8.783,-1.26786 -15.6533,-1.13289 -115.8985,-18.1804 -147.824,-25.14021 -20.4751,-4.46299 -49.5393,-13.42285 -63.4358,-19.5565 -5.2727,-2.32715 -10.3573,-4.11624 -11.2989,-3.97584 -2.7692,0.4129 -16.4601,-8.81591 -16.8818,-11.37975 -0.8914,-5.42193 -16.3869,-5.76798 -18.0499,-0.40306 -0.4728,1.5253 -2.0903,3.41947 -3.5945,4.20914 -6.1159,3.21085 -6.4154,11.7314 -0.9892,28.12541 3.385,10.22661 8.2062,13.8755 22.8625,17.30049 3.1688,0.74056 8.8438,2.18461 12.6111,3.20903 8.9047,2.42134 24.0704,5.9206 31.8657,7.35192 3.3919,0.62299 7.7137,1.75954 9.604,2.52555 1.8903,0.76609 4.8674,1.49046 6.6157,1.60993 1.7484,0.11939 3.494,0.59007 3.8791,1.04596 0.3852,0.45585 1.3858,0.72663 2.2235,0.60173 0.8376,-0.1249 3.0151,0.16548 4.839,0.6453 1.8238,0.47981 10.6202,2.56339 19.5476,4.6301 8.9274,2.06671 18.8456,4.57362 22.0406,5.57073 6.8296,2.13181 21.0377,5.38176 22.545,5.15701 0.5775,-0.0861 2.9012,0.46412 5.164,1.22269 2.2629,0.75857 6.4919,1.77643 9.3979,2.26187 2.9059,0.48544 6.7374,1.47955 8.5145,2.20906 1.777,0.72955 6.0146,1.68773 9.4169,2.12929 3.4024,0.44158 8.5609,1.47278 11.4633,2.29148 2.9025,0.8187 9.9347,2.26483 15.6268,3.21344 5.6925,0.94867 20.0147,3.93816 31.8278,6.64377 11.8132,2.70521 25.4807,5.82467 30.3725,6.93254 4.8919,1.10748 14.7994,3.47504 22.0167,5.26118 21.7454,5.38148 38.6307,9.27122 51.8273,11.93818 6.8803,1.39071 16.5222,3.50245 21.4264,4.69281 11.6725,2.83335 34.8652,7.66902 35.9829,7.50237 0.4818,-0.0719 2.8148,0.46635 5.1845,1.19597 3.9264,1.20898 15.5056,4.02095 24.7218,6.00385 2.0108,0.43263 7.2017,1.6815 11.5354,2.77514 4.3337,1.09374 13.5095,3.13119 20.3907,4.52764 6.8812,1.39645 16.5232,3.51595 21.4259,4.71007 6.0064,1.46269 10.0274,1.88357 12.325,1.29014 1.8756,-0.48445 14.2471,-2.96119 27.492,-5.50382 z M 1341.7378,1080.022 c 17.8662,-3.2487 39.9604,-7.1235 49.098,-8.6105 15.1628,-2.4676 16.7115,-2.8898 17.7311,-4.833 1.8816,-3.5857 0.7846,-6.653 -2.8682,-8.0201 -1.8099,-0.6774 -10.2014,-4.4097 -18.648,-8.2935 -8.4464,-3.8844 -16.0443,-7.004 -16.884,-6.9327 -7.1376,0.6062 -25.5548,4.6151 -61.2329,13.3288 -23.0712,5.6347 -43.828,10.5993 -46.1273,11.0326 -4.6233,0.8715 -5.2437,3.1976 -1.7629,6.6084 0.9561,0.9368 1.8825,2.6695 2.0586,3.8502 0.176,1.1808 2.0639,4.8453 4.1952,8.1435 l 3.8752,5.9966 19.0409,-3.1816 c 10.4725,-1.7499 33.6589,-5.8396 51.5251,-9.0883 z M 2706.7104,677.56878 c 3.469,-2.7158 3.9292,-5.10094 1.5082,-7.8168 -1.5637,-1.75417 -1.7488,-2.65927 -1.1311,-5.53178 0.9471,-4.40504 -3.3328,-7.33751 -10.4126,-7.13438 -2.5009,0.0718 -7.0648,0.0265 -10.1417,-0.10063 -3.0774,-0.12708 -11.0248,-0.0284 -17.6608,0.21917 -24.7947,0.92536 -32.3629,1.03753 -38.5432,0.57159 -3.49,-0.26321 -7.834,-0.25657 -9.6534,0.0147 -1.8193,0.27128 -3.7913,0.14985 -4.3822,-0.26984 -0.5908,-0.4197 -7.1052,-0.0171 -14.4763,0.89472 l -13.4021,1.65779 -0.1584,9.12311 c -0.2198,12.65681 -1.7437,13.9416 -15.0939,12.72112 -7.5042,-0.68601 -7.546,-0.74448 -8.423,-11.78669 -0.9135,-11.50205 -1.6,-12.12865 -11.7867,-10.7533 l -5.9238,0.80007 -0.059,4.55854 c -0.033,2.50721 -0.014,6.70744 0.042,9.33387 0.1472,6.95221 -1.2487,8.33944 -8.7065,8.65232 -13.6357,0.57202 -14.5853,-0.27712 -14.675,-13.12428 -0.072,-10.2626 0.3729,-9.84201 -9.3618,-8.84606 -9.1382,0.93534 -8.8878,0.61402 -8.2517,10.5878 0.6929,10.86462 0,11.68398 -10.1804,12.01476 -13.8975,0.45099 -13.8412,0.52358 -13.6785,-17.64265 l 0.037,-4.14401 -8.3151,0.59182 c -9.7343,0.69285 -9.5195,0.45053 -9.0353,10.19428 0.5168,10.40051 0.3531,10.64129 -8.0886,11.899 -4.812,0.71649 -8.3476,0.66735 -10.856,-0.15064 -3.9723,-1.29564 -3.955,-1.25081 -4.0435,-10.43275 -0.08,-8.30177 -1.033,-9.61418 -7.3516,-10.12351 -12.1932,-0.98272 -12.4933,-0.70998 -12.1566,11.06108 0.306,10.69178 -0.1849,11.23512 -10.1797,11.26717 -13.3243,0.0429 -12.7687,0.5216 -13.1792,-11.35856 -0.3285,-9.52936 -1.125,-10.8012 -6.2836,-10.03201 -1.8893,0.28171 -4.8414,-0.0584 -6.5599,-0.75592 -4.3622,-1.77044 -5.5418,0.20135 -5.4557,9.1194 0.038,3.88695 -0.2384,8.42196 -0.6134,10.07777 l -0.6818,3.01056 -8.2243,0.50235 c -11.7224,0.71664 -14.1697,-1.45621 -13.5689,-11.66646 0.4139,-6.79836 -0.8961,-9.34411 -5.0976,-9.90654 -13.1753,-1.76444 -14.2946,-0.91043 -13.6497,10.41178 0.5999,10.52157 0.2142,11.37175 -5.5177,12.15262 -13.5887,1.85087 -18.0192,0.14854 -17.8958,-6.87637 0.2443,-13.90002 -0.015,-14.19501 -11.7609,-13.41927 -10.0289,0.66298 -9.4858,0.023 -9.3545,11.03069 0.1341,11.22194 0.3653,10.96402 -10.9994,12.26528 -12.2015,1.39653 -12.4876,0.98299 -12.5027,-18.09701 0,-4.25504 -0.633,-4.48954 -9.7421,-3.62551 l -4.9736,0.47178 0.2844,7.45952 c 0.4726,12.39382 -0.5331,14.72664 -6.3521,14.743 -2.6385,0.007 -7.1844,0.033 -10.1018,0.0577 -7.3766,0.0624 -7.7913,-0.4156 -7.741,-8.92284 0.078,-13.2737 -2.1136,-15.53214 -12.8287,-13.2186 l -4.5566,0.98386 -0.1926,7.10611 c -0.2929,10.80535 -0.4381,11.55293 -2.6185,13.49674 -2.6556,2.36723 -17.1998,3.1342 -19.2909,1.0172 -1.3169,-1.33285 -1.5578,-5.51971 -0.9124,-15.85379 0.3167,-5.07217 -0.01,-5.26176 -9.1638,-5.39524 -9.5712,-0.13959 -9.3648,-0.37167 -9.2043,10.34949 0.1712,11.42164 0.077,11.52263 -10.8477,11.62157 -12.289,0.11096 -12.9131,-0.69754 -12.5308,-16.22441 0.1037,-4.2085 -1.4723,-4.92815 -9.5131,-4.34392 -8.5922,0.6243 -8.645,0.67682 -8.2943,8.2389 0.2911,6.27479 -0.571,10.93074 -2.0971,11.32714 -16.4892,4.27937 -21.7782,1.68137 -21.1176,-10.37205 0.4635,-8.44954 0.287,-8.65223 -6.9515,-7.98088 -6.7004,0.62138 -6.6739,0.56914 -6.2828,12.37185 0.2938,8.86835 -0.059,9.17755 -10.7616,9.43224 -12.0959,0.28781 -12.284,0.12476 -12.5253,-10.88483 -0.2352,-10.73672 -0.368,-10.87262 -10.0328,-10.27879 -8.4385,0.51885 -8.1837,0.20102 -8.4306,10.51966 -0.2519,10.52625 -0.629,10.89893 -11.4016,11.24331 -11.7027,0.37439 -12.0018,0.10464 -11.7369,-10.58178 0.287,-11.56376 0.3008,-11.55469 -17.0307,-10.69632 -5.8896,0.29177 -13.0213,0.62418 -15.8473,0.73851 -6.198,0.25094 -6.0752,-0.20044 -4.5324,16.66767 l 1.0623,11.61434 3.8993,-0.011 c 2.1445,-0.006 8.8679,-0.25238 14.9406,-0.54739 6.0729,-0.29502 13.7735,-0.5232 17.1124,-0.50703 3.3389,0.0161 12.1841,-0.16367 19.656,-0.39968 7.4718,-0.236 16.3256,-0.35878 19.6749,-0.27279 3.3493,0.086 7.8924,0.0419 10.0959,-0.098 2.2035,-0.13993 6.7432,-0.20714 10.0883,-0.14933 3.3451,0.0578 11.0452,-0.17361 17.1112,-0.51435 6.0661,-0.34066 16.4701,-0.74612 23.12,-0.90111 21.0951,-0.49154 30.9734,-0.90336 39.5191,-1.6475 4.5729,-0.39822 10.21,-0.35724 12.5264,0.091 2.6525,0.51335 8.1698,0.22499 14.9031,-0.77899 5.8801,-0.87676 11.8551,-1.3394 13.2785,-1.02819 2.6874,0.58772 20.4746,0.33685 36.9815,-0.52163 5.2421,-0.27262 21.0888,-0.79207 35.2148,-1.15441 14.126,-0.36233 32.0822,-0.99436 39.9012,-1.40437 7.8197,-0.41009 14.7155,-0.53172 15.3247,-0.27031 0.6089,0.26141 5.2799,0.0745 10.3802,-0.41539 11.1121,-1.06729 23.164,-1.30392 27.735,-0.54473 1.8296,0.30396 5.8971,0.12127 9.0389,-0.40598 7.5646,-1.26947 22.7463,-2.00337 38.9392,-1.88243 7.2371,0.0541 16.7561,-0.18415 21.1532,-0.52941 4.3972,-0.34527 12.2862,-0.83538 17.5311,-1.08914 5.2449,-0.25378 14.2563,-0.69569 20.0251,-0.9821 5.7688,-0.28634 13.2463,-0.48503 16.6166,-0.44159 3.3703,0.0435 8.6316,-0.2908 11.6923,-0.74296 3.06,-0.45224 7.5556,-0.43651 9.99,0.0347 2.4344,0.47113 7.6736,0.3724 11.643,-0.21947 3.9689,-0.5918 12.606,-1.02246 19.1927,-0.95686 6.5872,0.0655 12.866,-0.0184 13.9531,-0.1866 1.8447,-0.28527 7.4899,-0.49916 30.1612,-1.1428 14.2371,-0.40426 25.7616,-0.84194 30.6635,-1.16491 2.478,-0.16324 11.0688,-0.52392 19.0906,-0.80148 8.0218,-0.27758 18.91,-0.75749 24.1953,-1.06632 5.2856,-0.30889 13.2027,-0.60775 17.5944,-0.66424 4.3913,-0.0564 9.5647,-0.18247 11.4964,-0.28013 1.9317,-0.0977 3.8205,-0.15073 4.1975,-0.11794 0.3769,0.0328 1.9415,-0.92389 3.477,-2.12603 z m -721.9805,22.47149 c -0.2839,-1.90396 -0.2574,-4.029 0.059,-4.72233 0.9107,-1.99664 -0.6766,-19.08186 -1.8184,-19.57184 -0.5563,-0.23884 -7.1082,-0.27318 -14.5604,-0.0763 -7.4517,0.19683 -16.9492,0.43537 -21.1056,0.53009 -23.7721,0.54156 -21.8948,-0.84971 -21.1259,15.65779 0.6165,13.23379 0.7926,13.43906 11.3345,13.17751 4.1202,-0.10226 11.8216,-0.13387 17.1138,-0.0703 5.2923,0.0637 11.6274,-0.16811 14.078,-0.51502 2.4506,-0.3469 5.1894,-0.28736 6.0861,0.13229 4.2655,1.99656 10.4897,-0.84736 9.9389,-4.54122 z m -65.8776,2.90704 c 0.3865,-1.08092 0.2484,-7.09664 -0.3068,-13.36792 -1.2178,-13.75482 -1.0782,-13.61184 -12.7991,-13.08754 -8.8645,0.3964 -244.8133,5.17803 -262.9392,5.32885 -5.8317,0.0485 -17.1619,0.34475 -25.1783,0.65842 -9.026,0.35315 -15.7982,0.1121 -17.7878,-0.63312 -2.2439,-0.84056 -6.0561,-0.84976 -12.6428,-0.0307 -12.5044,1.55504 -23.7992,2.1902 -26.898,1.51259 -1.3818,-0.30217 -5.2726,-0.34156 -8.6461,-0.0875 -13.4687,1.01447 -35.6599,1.52561 -41.9512,0.96622 -7.2115,-0.64118 -14.7912,-0.74205 -25.8332,-0.34395 -3.8718,0.13962 -7.7518,0.0542 -8.6223,-0.18978 -1.9634,-0.55038 -17.6495,-0.15955 -25.6865,0.63997 -3.2877,0.32708 -9.614,0.61739 -14.0585,0.64517 -4.4446,0.0277 -16.7007,0.21694 -27.2358,0.42047 -10.5352,0.20352 -20.6294,0.17113 -22.431,-0.0721 -1.8016,-0.24322 -3.463,-0.18937 -3.6918,0.11965 -0.2288,0.30901 -3.7515,0.5614 -7.8282,0.56082 -15.5079,-0.002 -62.3588,1.09195 -65.0099,1.5182 -3.8952,0.62629 -10.6616,0.49535 -11.9731,-0.23178 -0.6062,-0.3359 -4.8906,-0.0823 -9.521,0.56354 -10.1889,1.42116 -24.8943,1.8171 -31.1449,0.83843 -2.5213,-0.39466 -6.8447,-0.40256 -9.6077,-0.0175 -2.763,0.38509 -9.5766,0.67812 -15.1415,0.65125 -5.5648,-0.0269 -11.6576,0.19568 -13.5401,0.49457 -1.8821,0.29884 -6.2364,0.0838 -9.6763,-0.47799 -6.9118,-1.1287 -28.2508,-1.02294 -30.3264,0.15031 -1.5759,0.89067 -21.3144,1.97104 -30.6057,1.67515 -3.6317,-0.11565 -6.9679,-0.0473 -7.4138,0.15193 -0.4459,0.19921 -4.986,0.26423 -10.089,0.14448 -5.1031,-0.11976 -13.0933,0.13464 -17.7558,0.56525 -4.6625,0.43064 -9.8729,0.57669 -11.5788,0.32455 -3.9295,-0.5869 -22.0114,0.19836 -29.1327,1.2602 -2.9385,0.43815 -5.7217,0.34803 -6.185,-0.20023 -0.4818,-0.57007 -2.1738,-0.57205 -3.9518,-0.005 -3.2186,1.02704 -14.9864,0.88483 -20.0287,-0.24196 -1.5821,-0.35356 -6.5582,-0.16199 -11.0582,0.42578 -5.2862,0.69044 -9.0937,0.67293 -10.7589,-0.0495 -1.8379,-0.79737 -3.9073,-0.73581 -7.2134,0.21448 -2.5499,0.73295 -7.747,1.32078 -11.5496,1.30636 -3.77329,-0.0137 -14.36052,0.17981 -23.50199,0.44083 -20.52933,0.57732 -32.19566,0.14501 -39.58713,-1.46643 -16.22937,-3.53893 -17.46389,-1.66761 -15.73032,23.8456 1.0281,15.12679 -0.54306,14.09016 21.31919,14.06369 4.16984,-0.005 9.86673,0.0599 12.65977,0.14465 2.79303,0.0847 10.97139,0.01 18.17414,-0.1667 7.20274,-0.17643 14.71138,-0.16601 16.68587,0.0232 8.1674,0.78245 20.47287,0.87478 21.73167,0.16325 0.7426,-0.41966 2.8867,-0.50009 4.7649,-0.17872 1.878,0.32139 8.1227,0.1198 13.8767,-0.44779 5.7542,-0.5677 12.9752,-0.96053 16.0467,-0.87298 3.0715,0.0876 11.2505,0.0165 18.1755,-0.15779 6.925,-0.17439 19.6208,-0.46612 28.2129,-0.64845 8.592,-0.18223 17.3747,-0.59852 19.5159,-0.92508 2.142,-0.32646 9.6119,-0.57601 16.5998,-0.55435 6.9879,0.0217 18.6011,-0.0901 25.8065,-0.2485 7.2055,-0.15832 15.8407,-0.22055 19.1895,-0.13842 3.3487,0.0822 6.9788,0.0172 8.0668,-0.14456 1.0881,-0.16172 6.0719,-0.30213 11.0751,-0.31203 16.437,-0.0325 18.1336,-0.0659 23.6904,-0.46589 15.9291,-1.14651 30.1162,-1.81116 34.6394,-1.62277 2.7978,0.11656 12.0833,-0.16158 20.6345,-0.61808 26.7027,-1.42564 34.4679,-1.68162 39.7413,-1.31017 2.8099,0.19789 9.1702,0.13528 14.1341,-0.13907 8.788,-0.48575 27.4338,-1.11992 44.7649,-1.52257 4.7104,-0.10942 9.455,-0.32818 10.5436,-0.48606 2.9322,-0.42538 28.5261,-0.54137 33.8475,-0.15341 2.5298,0.18443 8.4126,-0.0299 13.0727,-0.47624 12.5898,-1.20588 20.2758,-1.51832 32.6613,-1.32802 6.1309,0.0942 13.8611,0.0651 17.1783,-0.0646 3.3171,-0.12977 11.6957,-0.38759 18.6191,-0.57295 6.9233,-0.1854 18.0157,-0.55104 24.6497,-0.81256 10.9621,-0.43219 36.5926,-1.17665 68.4553,-1.98825 6.6477,-0.16934 16.4803,-0.55554 21.8493,-0.85817 5.3696,-0.3027 10.2098,-0.35823 10.7574,-0.12362 0.9368,0.40217 36.5791,-0.76566 57.4557,-1.88249 5.2409,-0.28038 14.3034,-0.52871 20.1388,-0.55185 5.8354,-0.0231 15.7973,-0.34189 22.1376,-0.70834 6.3403,-0.36647 14.2636,-0.62592 17.6075,-0.57662 6.1042,0.09 11.7764,-0.0973 38.7348,-1.2796 8.0108,-0.35131 16.8511,-0.56431 19.645,-0.47327 2.794,0.091 14.1216,-0.22255 25.1725,-0.69679 11.0509,-0.47424 23.7166,-0.96824 28.1459,-1.09778 9.4402,-0.27604 24.8593,-0.83087 36.2038,-1.30258 4.4212,-0.18384 9.8799,-0.19055 12.1304,-0.0149 7.7634,0.6058 17.3202,-1.18782 18.1107,-3.39907 z m -42.4875,-2.38595 c -10.4719,0.13959 -17.4186,-11.06717 -11.6711,-18.82866 1.2713,-1.71686 22.1391,-0.85445 22.7677,0.94087 3.8815,11.08781 -0.2474,17.74351 -11.0972,17.88819 z m -44.1177,2.09275 c -8.4985,0.44192 -8.7022,0.20269 -9.5385,-11.20381 -0.6668,-9.0949 -0.5908,-9.58305 1.4717,-9.45968 1.1963,0.0716 6.3846,0.0421 11.5295,-0.0653 11.1324,-0.23263 10.6718,-0.6299 10.6579,9.18462 -0.016,11.17552 0.4611,10.78595 -14.1209,11.54404 z m -49.5542,0.79107 c -4.1335,-0.0659 -7.9294,-0.68488 -8.5574,-1.39554 -1.5538,-1.75788 -2.3854,-18.80281 -0.9263,-18.98196 19.8779,-2.43771 29.7018,5.91232 21.9903,18.69334 -0.9838,1.63072 -2.5616,1.84324 -12.5073,1.68479 z m -41.778,1.50465 c -9.0121,0.0274 -10.6427,-2.4572 -10.0875,-15.36835 0.25,-5.81375 -0.3198,-5.52273 11.3596,-5.80153 12.1138,-0.28897 12.203,-0.21319 12.2265,10.49563 0.024,10.68936 0.096,10.63312 -13.4984,10.67412 z m -38.998,0.87085 c -1.4249,-0.23276 -4.4038,-0.1982 -6.6199,0.0768 -7.1139,0.88279 -7.9199,-0.15044 -8.1921,-10.50168 -0.2907,-11.04288 -0.7884,-10.52583 10.1665,-10.56202 5.0022,-0.0167 9.9245,-0.1241 10.9384,-0.23867 1.6992,-0.19201 1.8846,0.43822 2.3695,8.05451 0.7604,11.94345 -0.8829,14.44214 -8.6622,13.17151 z m -51.4593,1.90067 c -4.5292,-0.0172 -5.1929,-1.34386 -5.362,-10.71843 -0.2032,-11.27027 -0.3554,-11.12119 11.6269,-11.35284 12.2056,-0.23594 11.9137,-0.46449 12.0797,9.43669 0.1842,10.95867 -2.3374,12.69555 -18.3453,12.63447 z m -37.2389,-0.96719 c -8.7334,0.0515 -12.4666,-1.31736 -12.9714,-4.75703 -0.4107,-2.82239 -0.4018,-14.42143 0.017,-14.90138 0.3565,-0.40948 22.2859,-0.74421 22.8202,-0.34827 2.1583,1.59818 0.052,19.8332 -2.3014,19.92527 -0.6234,0.0243 -4.0273,0.0613 -7.5642,0.0822 z m -50.4606,1.29597 c -2.6833,-0.91164 -6.0122,-16.90923 -4.0684,-19.55179 0.5639,-0.7665 13.8248,-1.50775 20.07,-1.12184 2.7714,0.17125 4.975,14.03982 2.8009,17.62869 -1.328,2.19212 -14.8619,4.38394 -18.8025,3.04503 z m -37.1979,1.41623 c -10.948,-0.0632 -12.3007,-1.94094 -11.4198,-15.84913 l 0.3142,-4.96098 11.2935,-0.25726 c 13.589,-0.30945 12.1264,-1.35759 12.1636,8.71746 0.029,7.97348 -1.24,12.25588 -3.6612,12.35 -0.6054,0.0237 -4.516,0.0234 -8.6902,-7.1e-4 z m -39.4457,1.12961 c -12.1669,0.49616 -12.5123,0.18014 -13.2475,-12.12792 -0.6029,-10.08233 -0.5893,-10.09446 11.3824,-10.34102 12.3234,-0.25369 12.2756,-0.28923 12.2417,9.03745 -0.046,12.78159 -0.2282,13.01801 -10.3767,13.43119 z m -43.9431,1.55571 c -9.3269,0.40727 -16.2844,-14.19462 -10.5004,-22.03739 1.0334,-1.40102 19.1473,-1.67531 20.9997,-0.31806 3.3464,2.45199 2.0613,21.69726 -1.4641,21.92566 -0.8964,0.0581 -4.9624,0.25126 -9.0355,0.42912 z m -43.7073,1.40793 c -7.7328,-0.64372 -8.2929,-1.16663 -8.5939,-8.02322 -0.1477,-3.364 0.3889,-8.22074 1.1926,-10.79289 l 1.461,-4.6764 7.6285,-0.44152 c 12.3726,-0.71612 13.1291,0.0381 13.0726,13.04372 -0.045,10.26279 -2.3003,11.92766 -14.7614,10.89034 z m -44.0156,-1.14177 c -5.5147,0.1291 -7.4956,-4.28614 -7.135,-15.90365 0.1887,-6.07941 0.4316,-6.19529 13.1079,-6.25511 l 9.0931,-0.0429 0.8965,8.43754 c 1.3302,12.5177 0.3267,13.38316 -15.9626,13.76463 z m -39.9828,1.72542 c -6.7966,-0.1052 -6.9408,-0.294 -7.8526,-10.27831 -1.1104,-12.16021 -0.7945,-12.52983 10.9592,-12.79312 11.9722,-0.26887 11.4435,-0.66219 12.0691,8.97218 0.8259,12.72536 -0.8904,14.32091 -15.1746,14.09909 z m -41.5244,2.47225 c -6.0319,-0.9484 -6.5615,-1.70083 -7.0268,-9.98389 -0.6446,-11.47339 1.7138,-15.22016 8.8081,-13.99704 1.9021,0.32797 4.7358,0.31016 6.2973,-0.0396 6.2046,-1.38978 7.8867,0.33314 8.4151,8.61942 0.9286,14.56127 -2.3519,17.62457 -16.4941,15.4009 z m -40.8315,1.45766 c -7.2448,-0.2787 -8.2363,-1.25446 -7.8279,-7.70381 0.1835,-2.89531 0.1177,-6.71104 -0.146,-8.47939 -0.8242,-5.52788 8.975,-9.32466 19.1071,-7.40322 l 3.4218,0.64887 0.6881,8.90176 c 1.0491,13.57066 -0.089,14.61895 -15.2428,14.03543 z m -40.7981,0.18329 c -4.0189,-0.33765 -5.7196,-1.85801 -5.3286,-4.76374 0.1527,-1.13493 0.1926,-4.847 0.089,-8.24915 -0.2794,-9.14023 0.4475,-9.89126 10.1688,-10.50585 11.9923,-0.75818 13.0999,0.011 13.654,9.48405 0.7126,12.17099 -3.4395,15.30663 -18.5835,14.0341 z m -34.8782,2.13044 c -10.2671,0.15679 -10.8562,-0.29468 -11.3941,-8.73918 -0.8934,-14.00842 0.034,-15.3044 11.141,-15.5602 11.5006,-0.26578 11.8622,0.0166 12.4691,9.72847 0.8486,13.58338 0.1784,14.38296 -12.2165,14.572 z m -43.0133,1.74255 c -9.3877,0.22412 -10.2761,-0.81866 -9.9573,-11.68934 0.3845,-13.11816 0.5697,-13.31259 12.5734,-13.22288 10.8082,0.0813 10.7469,0.0233 11.5257,10.72752 0.9625,13.22162 0.3468,13.83917 -14.1417,14.18468 z m -40.8548,0.62377 c -10.8104,-0.44892 -10.3966,0.0275 -10.4127,-11.95912 -0.017,-11.9472 0.4062,-12.42478 11.241,-12.69259 11.5381,-0.28562 12.0645,0.11219 12.5776,9.50704 0.7801,14.27707 -0.464,15.68191 -13.4061,15.1447 z m -32.7965,0.42124 c -0.5719,-0.1063 -3.6303,-0.10059 -6.7965,0.0127 -9.4534,0.33826 -10.3331,-0.65811 -10.509,-11.90434 -0.1747,-11.15622 0.3684,-11.85496 9.5083,-12.23706 13.4732,-0.56415 14.4934,0.25666 14.4687,11.63846 -0.023,10.28583 -1.6946,13.41662 -6.6712,12.49144 z m -47.91878,0.4354 c -10.3571,-0.16851 -11.71508,-1.9663 -11.2737,-14.92863 0.28563,-8.38561 0.75999,-8.9276 8.0718,-9.22214 15.01998,-0.60503 15.93338,0.001 16.20278,10.74494 0.3193,12.75236 -0.5113,13.6082 -13.00121,13.40497 z m -36.56617,-0.85669 c -11.03692,-0.008 -12.18007,-1.88422 -10.59325,-17.38584 0.64584,-6.31096 9.8887,-8.91949 20.04779,-5.65796 5.03205,1.61535 4.81017,22.57546 -0.24287,22.93358 -0.89558,0.0636 -5.04106,0.11297 -9.21214,0.10979 z M 1983.1725,659.34658 c 1.9619,-3.23835 -7.8861,-14.49548 -12.1295,-13.86478 -0.8417,0.12506 -4.551,-0.68673 -8.2431,-1.80406 -6.3012,-1.90696 -7.443,-1.92254 -18.6253,-0.25518 -18.5311,2.76314 -21.6717,4.95831 -19.7592,13.81106 l 0.9899,4.58171 19.1832,-0.17986 c 10.5508,-0.0989 22.1425,-0.16704 25.7594,-0.15148 9.6946,0.0418 11.7067,-0.29348 12.824,-2.13741 z m 913.8838,-192.63352 c 1.406,-2.01692 8.0062,-12.66927 14.6673,-23.67194 6.6608,-11.00263 14.0089,-23.00251 16.3278,-26.66657 4.8618,-7.67988 16.0559,-27.01932 21.8307,-37.71492 2.1786,-4.03543 5.4388,-9.66812 7.2448,-12.51732 4.6748,-7.37396 9.0366,-14.93198 14.4515,-25.04412 2.5891,-4.8347 6.0023,-10.86167 7.5849,-13.39305 1.5826,-2.53157 4.8425,-8.20558 7.2443,-12.60925 2.4019,-4.40337 5.4539,-9.87145 6.7822,-12.15108 1.3283,-2.28002 7.0923,-12.44403 12.809,-22.58701 5.7166,-10.14299 13.4944,-23.58401 17.284,-29.86861 3.7896,-6.285 10.0505,-16.83935 13.9122,-23.45419 3.8624,-6.61494 9.9507,-17.01354 13.53,-23.10805 6.5598,-11.17057 8.9859,-15.29951 22.105,-37.62438 3.9568,-6.73316 9.3176,-15.51581 11.9139,-19.51745 2.5957,-4.00157 6.809,-11.07629 9.3628,-15.72171 6.8301,-12.42413 17.017,-29.42841 20.2235,-33.758641 4.8844,-6.596267 8.5409,-7.135621 46.3565,-6.837105 5.0107,0.03956 12.2678,-0.110834 16.1271,-0.334229 3.8592,-0.223375 9.8909,-0.183701 13.4035,0.08814 9.1719,0.709719 10.4176,-0.111163 14.7739,-9.734957 2.0678,-4.568205 4.5822,-9.295205 5.5875,-10.504396 1.0053,-1.209176 1.7485,-2.731218 1.6514,-3.382221 -0.097,-0.651013 1.5775,-4.914281 3.7213,-9.473901 5.1262,-10.903217 4.748,-11.794193 -4.8151,-11.34696 -8.8569,0.41377 -26.9695,0.680339 -39.9632,0.588302 -5.0789,-0.03602 -10.7368,0.159985 -12.5732,0.435631 -1.8362,0.275814 -7.8902,0.489279 -13.4531,0.474816 -5.563,-0.01444 -18.5181,0.0638 -28.7892,0.173751 -10.2711,0.110055 -23.219,0.236465 -28.7732,0.280966 -5.5541,0.04452 -14.397,0.240257 -19.6507,0.434992 -5.2537,0.194735 -10.9068,0.1185 -12.5613,-0.169439 -1.6552,-0.2879 -4.4463,-0.3092 -6.2027,-0.04731 -1.7564,0.26189 -4.798,0.07024 -6.7592,-0.425826 -1.9613,-0.496106 -6.2303,-0.528965 -9.4868,-0.07312 -3.2563,0.455926 -7.553,0.56092 -9.5481,0.233393 -1.9952,-0.327556 -7.2478,-0.464598 -11.6726,-0.304494 -4.4248,0.160055 -9.6411,0.266165 -11.592,0.235733 -3.0789,-0.04798 -4.1873,0.616271 -8.3997,5.037864 -2.6691,2.801257 -7.1611,7.029764 -9.9824,9.39672 -2.8211,2.366926 -7.9971,7.16564 -11.5021,10.663803 -3.505,3.498163 -9.646,9.306229 -13.6458,12.906572 -6.9404,6.247059 -16.1043,18.659046 -21.7225,29.421296 -1.2592,2.41207 -2.5024,4.64483 -2.7625,4.96165 -0.9935,1.20964 -8.7576,14.04411 -9.822,16.23605 -0.6141,1.26481 -2.4865,4.50133 -4.1608,7.19227 -1.6742,2.69094 -5.2067,8.855 -7.85,13.69748 -2.6433,4.84279 -5.9719,10.03556 -7.3969,11.53904 -1.4248,1.50399 -2.5249,3.1759 -2.4444,3.71554 0.1458,0.97817 -3.7517,7.70826 -10.1092,17.45574 -1.8435,2.82658 -4.0936,6.92411 -5.0002,9.10568 -0.9067,2.18157 -2.9874,5.54905 -4.624,7.48316 -1.6366,1.93422 -2.9284,3.83339 -2.8707,4.22041 0.2239,1.5013 -8.8736,16.79834 -11.7506,19.75799 -1.67,1.71817 -2.9695,3.5725 -2.8878,4.12074 0.1862,1.2484 -2.8587,6.65871 -13.1883,23.43321 -4.4768,7.27002 -8.975,14.99963 -9.995,17.17787 -1.0206,2.17774 -4.2789,7.7879 -7.2405,12.46714 -2.9616,4.67913 -8.7952,14.62601 -12.963,22.10343 -4.1678,7.47782 -9.074,15.88895 -10.9035,18.69242 -1.8291,2.80279 -5.1922,9.014 -7.4736,13.80311 -4.2234,8.8653 -5.9714,11.99077 -13.1967,23.59421 -2.2432,3.60281 -5.8854,9.68911 -8.0939,13.52456 -2.2084,3.83593 -5.4342,8.90125 -7.1684,11.25625 -1.7341,2.355 -3.055,4.93895 -2.9352,5.74217 0.2061,1.38241 -9.5761,17.95256 -12.8575,21.78034 -3.0388,3.54442 -4.1058,9.35743 -2.2768,12.4034 1.6587,2.76269 2.3284,3.03197 8.2865,3.33187 1.7897,0.0901 5.3975,1.40151 8.0175,2.91447 2.62,1.51285 5.4322,2.65813 6.2495,2.54517 0.8173,-0.11277 2.928,0.31173 4.6905,0.94388 12.3418,4.42687 21.8877,7.24427 25.4026,7.49868 2.2595,0.16317 6.0424,1.12277 8.4064,2.13246 4.8189,2.05814 18.7469,6.16933 20.178,5.95593 0.511,-0.0762 4.7383,1.11339 9.394,2.6435 4.6558,1.53012 9.415,2.64039 10.5755,2.46734 1.1609,-0.1731 3.2931,0.33773 4.7381,1.13516 1.4451,0.7974 5.347,2.0915 8.6708,2.87579 3.3239,0.78418 6.3429,1.78023 6.7089,2.2133 0.3658,0.4331 1.7075,0.63202 2.9814,0.44208 1.2738,-0.18993 4.8622,0.40799 7.9741,1.32873 7.1014,2.10117 6.8403,2.15982 9.8962,-2.22402 z m -353.4216,45.72162 c -0.2374,-1.59249 5.0909,-12.74414 6.1658,-12.90442 0.4867,-0.0726 3.2123,-2.7395 6.0569,-5.92636 2.8447,-3.18698 6.7577,-7.29648 8.6955,-9.13224 1.9378,-1.83575 8.1631,-8.39376 13.834,-14.57356 5.6708,-6.17958 11.9149,-12.68285 13.8754,-14.45233 1.9605,-1.76928 6.5022,-6.40031 10.0926,-10.29126 3.5904,-3.89096 7.9998,-8.39893 9.7987,-10.01784 1.7989,-1.61878 5.5632,-5.69137 8.3653,-9.05015 2.8021,-3.35877 7.3641,-8.26511 10.1379,-10.90303 2.7737,-2.6379 7.3973,-7.53583 10.2752,-10.88436 2.8775,-3.34849 5.5805,-6.14014 6.0064,-6.20366 0.7674,-0.11441 10.3437,-10.33659 16.9771,-18.12189 3.9287,-4.6108 11.6642,-12.98722 15.246,-16.50896 1.3334,-1.31097 5.6479,-5.82159 9.5876,-10.02355 3.9399,-4.20199 8.9186,-9.35003 11.0648,-11.4403 2.1457,-2.0902 5.9438,-6.08289 8.4403,-8.87257 4.7751,-5.33616 21.019,-22.16519 31.1046,-32.2256 3.2774,-3.26909 9.8644,-10.18777 14.6376,-15.37483 4.7735,-5.1871 10.078,-10.72839 11.7878,-12.31409 1.7099,-1.5855 5.736,-5.80379 8.9474,-9.37394 3.2109,-3.57007 9.2264,-10.18121 13.3676,-14.69105 4.1413,-4.51006 9.3045,-10.22723 11.4738,-12.70504 2.1695,-2.47765 7.4361,-7.96708 11.703,-12.19831 7.1042,-7.04465 10.6276,-11.98539 8.2989,-11.63817 -1.3073,0.19493 -26.7062,23.56827 -37.8589,34.83929 -3.3545,3.39028 -8.1511,7.83779 -10.659,9.88333 -2.5079,2.04562 -8.139,7.17669 -12.5133,11.4023 -4.3746,4.22576 -15.157,14.29866 -23.9608,22.38444 -14.617,13.42447 -30.0062,27.68495 -39.0858,36.21932 -1.9509,1.83366 -7.117,6.85404 -11.4803,11.15626 -4.3632,4.30232 -11.3427,10.89189 -15.51,14.6435 -11.1647,10.05145 -30.0326,27.83347 -42.7905,40.32759 -2.5377,2.48523 -6.2163,5.97753 -8.1747,7.76075 -1.9584,1.78322 -5.7352,5.44171 -8.3928,8.12985 -2.6576,2.68813 -9.3876,9.10016 -14.9561,14.24949 -14.5028,13.41048 -26.3803,24.91999 -33.4974,32.45803 -6.2416,6.61149 -44.1319,40.40425 -46.3254,41.31572 -7.7341,3.21465 -11.3434,9.09059 -6.9367,11.29146 8.1093,4.04903 36.6867,7.02132 36.2012,3.76542 z M 911.98161,729.33829 c 0.81035,-0.8617 1.29031,-3.75717 1.16,-6.99759 -1.21195,-30.13477 -0.97525,-29.56849 -11.80068,-28.22631 -3.50222,0.43445 -10.70423,0.62937 -16.00411,0.43318 -5.30018,-0.19615 -14.29801,0.3074 -19.99462,1.11889 l -10.35865,1.4756 -0.0941,4.05825 c -0.64714,27.9076 1.34135,31.61286 15.83408,29.50243 2.34427,-0.34146 7.02552,-0.39665 10.40262,-0.12289 3.3773,0.27371 10.42722,0.37431 15.66727,0.22347 5.23966,-0.15081 9.75881,-0.10242 10.04237,0.10756 0.99256,0.73496 3.77634,-0.11564 5.14647,-1.57252 z m -67.63223,-5.84974 c -0.24209,-4.12875 -0.76178,-11.88057 -1.15488,-17.22604 l -0.71467,-9.71928 -2.83587,-0.62016 c -1.55777,-0.34402 -4.32576,-0.39638 -6.15553,-0.12355 -1.827,0.27242 -5.53268,0.39474 -8.23486,0.27181 -2.70217,-0.12291 -8.54412,-0.16544 -12.9819,-0.0946 -4.43807,0.0709 -12.87417,-0.057 -18.74691,-0.28426 -5.87274,-0.22729 -32.16439,-1.10314 -58.42597,-1.94678 -106.04219,-3.40845 -217.40891,-8.41917 -236.66056,-10.66454 -7.2727,-0.84609 -14.74254,-1.18891 -23.86852,-1.09531 -2.19085,0.0225 -4.72968,-0.22213 -5.64185,-0.5435 -2.70747,-0.95384 -23.6138,-2.77059 -24.38416,-2.11916 -0.68996,0.58303 -14.14159,-0.52862 -34.02364,-2.81133 -5.36939,-0.61486 -11.10742,-0.92198 -12.75916,-0.6757 -1.65006,0.24604 -6.2433,-0.0104 -10.20764,-0.56973 -3.96395,-0.55943 -11.33595,-1.24765 -16.38268,-1.52935 -5.04673,-0.2817 -16.09171,-1.12393 -24.54439,-1.87152 -8.45268,-0.7476 -19.05665,-1.68349 -23.56437,-2.07963 -4.50771,-0.39615 -15.54749,-1.20346 -24.53282,-1.79398 -72.05935,-4.73566 -139.24234,-14.84827 -178.92875,-26.93458 -6.40784,-1.95133 -14.1849,-3.76189 -17.28234,-4.02344 -3.097444,-0.26156 -6.510125,-1.03907 -7.583731,-1.72777 -2.44921,-1.57603 -13.406742,-4.2796 -15.868023,-3.92272 -2.661575,0.39686 -15.77911,13.74739 -15.478256,15.76508 0.115032,0.77147 14.673524,6.59814 15.995905,6.40096 0.683869,-0.10197 3.129339,0.97182 5.43434,2.38625 6.581246,4.03847 43.368565,16.73713 52.869635,18.25049 2.27843,0.36286 6.29478,1.36256 8.92523,2.22162 2.63046,0.85906 10.20518,2.57452 16.83326,3.81206 6.6276,1.23771 12.96781,2.56317 14.08847,2.94568 3.3505,1.14297 27.46979,5.31211 35.1951,6.08404 3.95142,0.39467 11.83654,1.40434 17.52252,2.24386 5.68597,0.83943 17.00693,2.19669 25.15791,3.01616 8.15118,0.81945 15.57027,1.75634 16.48734,2.08206 0.91689,0.32566 7.18639,0.99212 13.93274,1.48083 6.74586,0.48888 12.76069,1.16058 13.36629,1.4927 1.05933,0.58102 2.99585,0.81772 16.47712,2.01351 3.3812,0.29992 9.61891,0.94072 13.86158,1.424 4.24266,0.48329 8.87772,0.6913 10.29981,0.46237 1.42248,-0.22899 5.55843,0.0472 9.191,0.61365 3.63266,0.56645 10.05754,1.30167 14.27805,1.63367 4.22011,0.33204 10.46077,0.99263 13.86814,1.46802 3.40736,0.47534 9.87204,1.11266 14.36595,1.41623 4.49391,0.30356 12.15758,1.05537 17.02961,1.67079 4.87233,0.61537 11.30384,1.03222 14.29289,0.92625 2.98876,-0.10594 6.63002,0.1995 8.09169,0.67878 2.55796,0.83873 18.19517,2.21878 27.66251,2.4413 2.51116,0.059 5.74403,0.38125 7.18415,0.71603 1.44013,0.33481 6.9633,0.76049 12.27373,0.94605 5.31043,0.1855 10.85081,0.72659 12.31296,1.20236 1.46175,0.4758 5.37238,0.76648 8.69029,0.64594 3.3179,-0.12052 10.89532,0.35386 16.83859,1.05422 19.55775,2.30468 27.15641,2.92564 32.75283,2.67626 6.24888,-0.27832 13.31907,0.0572 20.87435,0.99064 2.83258,0.34994 6.51765,0.65354 8.18904,0.67468 4.33124,0.0548 17.09956,0.7498 25.48323,1.38717 3.93719,0.29935 10.36417,0.6838 14.28216,0.85435 16.67947,0.72609 22.63554,1.13255 25.37798,1.73236 1.60105,0.35014 4.21086,0.44284 5.79959,0.20595 1.58874,-0.2369 4.84904,-0.29483 7.24514,-0.12875 9.50826,0.65905 26.8586,1.12506 29.10963,0.78204 1.3116,-0.19962 4.74809,-0.0375 7.63671,0.3608 11.49135,1.58461 17.91739,2.06447 25.13981,1.87768 4.15459,-0.10742 12.35783,-0.0156 18.22945,0.2042 5.8716,0.21967 16.37345,0.51815 23.337,0.66327 6.96392,0.14497 12.9486,0.38661 13.29861,0.53703 0.64366,0.27636 10.76211,0.24704 23.6909,-0.0688 6.41604,-0.15673 13.79242,-0.15183 37.41271,0.0245 11.60973,0.0867 11.09106,0.48674 10.58372,-8.16403 z m -44.81522,-1.05228 c -1.39108,-0.006 -4.03614,-0.0298 -5.87794,-0.0533 -4.91023,-0.0626 -7.74233,-2.48495 -7.25141,-6.2024 0.21632,-1.63822 0.30154,-5.80333 0.18938,-9.25564 -0.24851,-7.6502 -0.40045,-7.5597 11.86793,-7.07117 12.22343,0.48665 11.36071,-0.2883 11.45616,10.29101 0.10582,11.71954 -0.41311,12.33277 -10.38378,12.29177 z m -45.34882,0.80048 c -7.96063,-0.7234 -8.38817,-1.40864 -8.06813,-12.93154 0.34607,-12.46028 -0.11214,-12.02292 12.32444,-11.73954 12.00873,0.27408 12.15264,0.40519 11.82717,10.79379 -0.43487,13.85766 -1.94646,15.16184 -16.08323,13.87765 z m -39.27819,-2.16099 c -10.78511,-0.62507 -10.15742,0.14002 -10.58293,-12.88818 -0.30911,-9.45793 0.92302,-11.50392 6.77072,-11.24044 2.35803,0.10606 6.89874,0.30786 10.09046,0.44839 7.22024,0.31795 7.57279,0.97019 6.79332,12.56554 -0.78332,11.65092 -0.9766,11.81522 -13.07178,11.11462 z m -38.07196,-1.48266 c -11.11667,-0.36018 -11.84222,-1.14415 -11.06293,-11.95822 0.79864,-11.085 1.15842,-12.4429 3.2253,-12.16165 0.92604,0.12578 5.91083,0.35325 11.07768,0.50552 l 9.39355,0.2769 0.47884,3.21139 c 0.26337,1.76628 0.2605,4.56298 -0.006,6.215 -0.26686,1.65202 -0.51278,4.69921 -0.54659,6.77176 -0.0638,3.91471 -1.78081,7.20218 -3.8219,7.31766 -0.6499,0.0367 -4.58159,-0.0434 -8.73719,-0.17801 z m -44.22446,-1.47745 c -6.26948,-0.41513 -9.51407,-2.31652 -8.8235,-5.17037 0.21341,-0.88189 0.33314,-4.37052 0.26609,-7.75251 -0.22255,-11.22694 0.0892,-11.4807 13.35679,-10.8441 11.26486,0.5403 11.47816,0.8384 10.71738,14.93777 -0.48775,9.03927 -1.7232,9.74216 -15.51664,8.82869 z m -36.86998,-2.89416 c -11.03551,-0.92786 -11.30943,-1.32743 -9.7751,-14.21584 1.08467,-9.10906 0.58697,-8.78806 12.8741,-8.30414 l 10.56286,0.41607 0.55937,7.85914 c 1.00456,14.11317 -0.29629,15.41627 -14.22167,14.24514 z m -37.73442,-2.18209 c -2.83278,-0.35128 -6.34402,-0.46953 -7.80267,-0.26275 -3.25297,0.46108 -6.49732,-1.74993 -5.96234,-4.06332 0.21589,-0.93363 0.53965,-5.12109 0.71952,-9.30547 0.41909,-9.74991 -0.24671,-9.28828 12.43148,-8.62133 13.11822,0.69011 12.51193,0.29237 11.71968,7.68616 -0.35389,3.30017 -0.71352,7.23009 -0.79919,8.73315 -0.32824,5.75787 -2.23119,6.83499 -10.30638,5.83355 z m -46.69517,-2.10594 c -8.99973,-0.5989 -9.33786,-1.04258 -9.2425,-12.12755 0.099,-11.5135 -0.56427,-10.84841 10.3652,-10.39571 14.75343,0.61099 14.15462,0.2634 13.64119,7.90649 -1.06748,15.88715 -0.72808,15.55142 -14.76275,14.617 z m -41.03324,-3.08223 c -7.76995,-0.65154 -10.08254,-2.49999 -9.69846,-7.75176 0.15484,-2.11709 0.29528,-5.47845 0.31221,-7.46962 0.0607,-7.16955 0.57835,-7.44369 12.69541,-6.7225 5.88613,0.35036 10.8684,0.72256 11.07105,0.82722 0.20296,0.10464 0.2844,4.19705 0.18099,9.09435 -0.25702,12.172 -1.41174,13.12471 -14.56119,12.02241 z m -35.99681,-4.09011 c -16.89479,-1.8379 -16.13714,-1.1574 -15.10179,-13.55909 0.7244,-8.68015 -0.12428,-8.21834 13.32543,-7.25048 12.25199,0.88165 11.50601,0.31325 11.48602,8.75682 -0.0271,11.09836 -1.51388,12.94481 -9.70966,12.05275 z m -46.31771,-2.8089 c -10.12644,-0.68285 -10.23699,-0.84795 -9.49311,-14.15476 0.47304,-8.45916 -0.24262,-8.03993 12.08244,-7.07687 13.54927,1.05857 12.71269,0.34372 11.8198,10.10029 -1.03465,11.30925 -1.89665,11.97465 -14.40894,11.13131 z m 520.24353,-22.68216 c -1.06325,-7.13076 -26.17733,-13.22302 -37.76395,-9.16084 -2.37805,0.83373 -6.26992,2.19447 -8.64862,3.02384 -6.09532,2.12526 -8.47874,4.16314 -8.07055,6.90068 0.60835,4.07999 3.13627,4.57823 17.05838,3.36224 7.20427,-0.62926 15.82378,-1.1747 19.1547,-1.21204 10.17744,-0.11419 18.48985,-1.43968 18.27009,-2.91351 z M 44.279016,771.4285 c 3.013125,-4.19604 5.918196,-11.67445 6.368771,-16.39552 0.142244,-1.49028 1.033825,-3.83571 1.981216,-5.21198 2.276922,-3.30746 -1.988866,-26.15872 -6.465063,-34.63224 -1.497748,-2.83006 -2.900951,-6.34151 -3.116268,-7.78555 -0.215936,-1.44819 -1.110707,-3.06814 -1.98835,-3.59993 -0.877664,-0.53172 -2.07492,-2.22361 -2.660469,-3.75975 -0.585618,-1.53613 -1.520369,-2.98856 -2.077332,-3.22773 -0.556893,-0.23912 -2.166374,-2.05175 -3.576559,-4.02809 -3.819873,-5.35339 -15.262962,6.29882 -17.756711,18.08042 -0.248968,1.17648 -1.472327,3.94143 -2.718579,6.14431 -4.7471036,8.39115 -4.5316556,14.61917 0.805152,23.27577 2.450928,3.97572 4.270941,7.47871 4.044653,7.78443 -1.263371,1.70496 21.36393,27.84376 23.792085,27.4817 0.251263,-0.0375 1.767092,-1.8927 3.368505,-4.12286 z M 1794.3853,391.50316 c 30.1218,-40.77616 56.192,-76.02838 57.9332,-78.33944 2.0873,-2.77012 5.5724,-5.50733 10.2281,-8.03326 3.8843,-2.10729 14.0894,-8.57563 22.6782,-14.37369 8.5888,-5.79835 17.4956,-11.66768 19.7929,-13.04302 4.6234,-2.7677 15.311,-9.78744 39.694,-26.07205 3.846,-2.56848 7.3224,-4.71919 7.7253,-4.77927 0.4029,-0.0601 1.8243,-1.16112 3.1588,-2.44681 1.3344,-1.28565 4.9127,-3.6944 7.9518,-5.35284 3.0392,-1.65844 10.4807,-6.40055 16.5367,-10.53812 6.0561,-4.13757 15.3721,-10.3135 20.7024,-13.72419 5.3303,-3.41079 13.8263,-8.9838 18.88,-12.3844 5.0538,-3.4006 12.7082,-8.51518 17.0098,-11.36564 4.3017,-2.85057 11.8899,-7.8935 16.8627,-11.2065 4.973,-3.31303 9.2443,-6.05392 9.4925,-6.09093 0.2481,-0.037 7.2855,-4.72612 15.6383,-10.42023 8.3532,-5.69417 15.5858,-10.41241 16.0734,-10.48512 0.4871,-0.0726 8.2239,-5.1371 17.1923,-11.25442 8.9689,-6.1173 19.2019,-13.06673 22.7402,-15.44253 11.7608,-7.89831 40.2712,-27.442166 48.2993,-33.109086 30.192,-21.278315 60.726,-42.298219 61.8139,-42.460444 0.2916,-0.04348 7.4212,-4.87536 15.8437,-10.737498 8.4223,-5.862093 17.391,-11.982999 19.93,-13.601947 2.539,-1.618849 7.2768,-4.901559 10.5283,-7.294851 3.2516,-2.393307 6.6652,-4.673263 7.5857,-5.066527 4.1556,-1.775569 0.5317,-2.548377 -9.3869,-2.001725 -5.9292,0.326767 -16.4808,0.504858 -23.448,0.395879 -23.0239,-0.360337 -28.6781,-0.165753 -45.7682,1.57519 -15.9796,1.627798 -26.7857,2.177898 -43.1479,2.196154 -3.8919,0.0044 -11.1751,0.251525 -16.186,0.549371 -5.0103,0.297812 -10.9225,0.317806 -13.1371,0.04431 -6.7686,-0.835417 -13.048,0.682451 -26.1009,6.309285 -6.8781,2.965089 -14.4324,6.200647 -16.7872,7.190248 -2.3548,0.989611 -8.3272,3.653331 -13.2721,5.919368 -4.9449,2.266036 -11.7712,5.305806 -15.1697,6.755044 -8.4532,3.604773 -14.2463,6.186766 -23.7011,10.564301 -4.4215,2.047048 -9.7778,4.265948 -11.903,4.931033 -2.1251,0.665074 -5.7789,2.097386 -8.1194,3.182828 -2.3405,1.085481 -9.3848,4.189352 -15.6539,6.897622 -27.2927,11.78997 -36.6542,15.931874 -45.5276,20.140511 -5.1934,2.463458 -12.237,5.572115 -15.6523,6.908106 -18.8774,7.384528 -33.0633,13.332768 -45.6749,19.152438 -4.9427,2.28077 -12.6215,5.70607 -17.064,7.61178 -22.5272,9.66362 -28.2166,12.20507 -30.3335,13.54926 -1.27,0.8064 -9.5767,4.59722 -18.4595,8.42397 -8.8828,3.82675 -18.2774,7.95003 -20.877,9.16277 -12.1877,5.68579 -14.5872,6.75575 -20.3825,9.08854 -7.5418,3.03595 -14.5926,6.11615 -27.0529,11.81802 -5.2056,2.38216 -11.5958,5.29582 -14.2004,6.47493 -18.4538,8.35386 -23.0654,10.42057 -25.5886,11.46714 -1.5711,0.65166 -5.4162,2.32639 -8.5446,3.72152 -3.1285,1.39517 -13.8172,5.99366 -23.7527,10.21873 -33.102,14.07691 -46.4741,19.82767 -58.908,25.3336 -6.7813,3.00283 -14.8952,6.56165 -18.0309,7.90842 -3.1356,1.3468 -9.1032,4.04343 -13.2612,5.99256 -4.158,1.94912 -11.39,5.06241 -16.0714,6.91862 -4.6812,1.85606 -10.8766,4.55222 -13.7669,5.99142 -11.3234,5.63769 -19.8131,9.45608 -49.3502,22.19674 -4.9635,2.14101 -13.2879,5.81334 -18.4987,8.16068 -5.2108,2.34744 -17.1749,7.54662 -26.5868,11.55368 -9.412,4.00707 -19.0267,8.17995 -21.3661,9.27301 -2.3394,1.09307 -9.3811,4.21388 -15.6483,6.93511 -6.2672,2.72123 -13.0906,5.78107 -15.1631,6.79955 -3.9695,1.95075 -6.3755,2.99925 -19.462,8.48085 -14.5227,6.08318 -25.941,11.1115 -37.0015,16.29506 -15.109,7.08035 -18.677,8.66003 -32.2469,14.27801 -6.5469,2.71035 -13.8194,5.80927 -16.1611,6.8863 -2.3418,1.07709 -7.8925,3.51803 -12.3349,5.42443 -4.4425,1.90631 -11.8879,5.37083 -16.5455,7.69897 -4.6576,2.32805 -10.1962,4.85034 -12.308,5.60504 -4.5989,1.64348 -15.2549,6.37324 -25.6039,11.36467 -9.9265,4.78748 -12.1048,5.77451 -25.5711,11.58503 -6.2696,2.7053 -13.0856,5.81431 -15.1467,6.90894 -2.0611,1.09461 -9.4583,4.41536 -16.4385,7.37949 -6.9799,2.9641 -13.5377,6.19292 -14.5731,7.17527 -1.0356,0.98232 -2.732,1.91262 -3.7699,2.06739 -1.038,0.15476 -8.7759,3.84195 -17.1957,8.19376 -11.6194,6.00556 -15.7837,7.7425 -17.28,7.20752 -2.0105,-0.71886 -22.8569,7.3099 -24.4037,9.39867 -1.5847,2.13999 3.3713,2.62763 28.9825,2.85192 14.7554,0.12923 29.1127,0.30132 31.9052,0.38248 2.7925,0.0811 11.8939,0.0933 20.2252,0.027 8.3313,-0.0663 21.0649,-0.10444 28.2969,-0.0849 7.232,0.0197 20.4301,0.0458 29.3293,0.0583 8.8991,0.0124 20.9588,0.0313 26.7992,0.0419 5.8404,0.0106 12.9062,0.10225 15.7017,0.20368 2.7956,0.10147 13.0397,0.15008 22.7649,0.10808 9.7251,-0.042 21.7851,-0.0207 26.8,0.0473 5.0149,0.0681 13.4488,0.181 18.742,0.25093 5.2932,0.07 13.2496,0.0322 17.6809,-0.0839 4.4314,-0.11612 17.4154,-1.7e-4 28.8535,0.25749 18.5982,0.41907 32.1198,0.60092 52.6805,0.70816 3.6173,0.0189 10.2387,0.18121 14.7141,0.36065 4.4754,0.17947 14.2769,0.31058 21.7811,0.29137 31.8411,-0.0815 42.7529,-0.0308 56.6583,0.26315 8.0887,0.17098 17.6561,0.25775 21.261,0.19281 12.6537,-0.22814 36.0333,-0.23478 54.0891,-0.0155 10.0276,0.12179 23.2429,0.26248 29.3672,0.31262 24.457,0.20014 39.2856,0.43391 48.1384,0.75929 4.1936,0.15407 9.0091,0.11481 10.7011,-0.0873 2.7869,-0.33294 8.2343,-7.34943 57.8437,-74.50532 z m -684.0664,65.8645 c 3.646,-1.65368 13.8728,-6.13542 22.7257,-9.95933 19.3528,-8.3592 18.597,-7.55606 14.6866,-15.59547 -4.3489,-8.9416 -7.0198,-16.75192 -6.7318,-19.68647 0.1608,-1.63773 -0.3543,-2.86437 -1.4931,-3.55417 -1.2118,-0.66859 -2.019,-2.69167 -2.4747,-5.74788 -0.4316,-2.8945 -1.3189,-5.07731 -2.3075,-5.67617 -0.8833,-0.5352 -2.4595,-3.29137 -3.5024,-6.12484 -1.2381,-3.36349 -2.5022,-5.23968 -3.6419,-5.40511 -24.522,-3.55908 -39.9219,25.11318 -34.1784,63.63233 2.0256,13.58481 3.3939,14.24322 16.8829,8.125 z m 493.793,-217.70378 c 3.4172,-1.32363 9.6095,-4.03844 13.7608,-6.03287 4.1512,-1.99442 12.6784,-5.83296 18.9492,-8.52985 6.2708,-2.697 13.5339,-5.85941 16.1401,-7.02754 2.6062,-1.16816 11.5776,-5.07897 19.9363,-8.69078 14.5661,-6.29389 15.1766,-6.66762 14.6954,-8.99288 -1.1615,-5.61238 -5.2494,-14.41545 -7.5399,-16.23657 -1.3563,-1.07837 -2.985,-3.21796 -3.6193,-4.75462 -0.6342,-1.53657 -1.9197,-3.84726 -2.8565,-5.13488 -0.9368,-1.28763 -1.7855,-2.8731 -1.8858,-3.52352 -0.097,-0.65083 -2.0981,-3.56011 -4.4391,-6.46623 -2.3411,-2.90612 -4.7243,-6.40896 -5.2958,-7.78411 -1.9626,-4.72159 -3.7562,-5.22467 -20.0264,-5.61678 -18.7131,-0.45097 -28.712,1.34175 -34.1691,6.12626 -5.0046,4.38784 -12.7495,14.85571 -12.4547,16.83285 0.096,0.64312 -0.8124,3.48027 -2.0186,6.30473 -2.9332,6.86909 -5.4865,17.9393 -4.9618,21.51096 0.237,1.58923 -0.1171,4.3362 -0.7796,6.10321 -1.3148,3.50705 0.2911,22.8479 2.4033,28.94507 2.2132,6.38897 4.2343,6.81243 14.1615,2.96715 z M 234.30288,623.92136 c -8.20096,-0.88684 -9.76101,-4.99994 -8.97102,-23.65261 0.60913,-14.38614 0.86262,-14.70197 12.25888,-15.32548 18.47813,-1.00985 21.01533,0.81048 23.24964,16.67655 0.85115,6.04457 1.76044,12.03498 2.02075,13.31155 0.95682,4.69391 -16.74792,10.2674 -28.55842,8.99022 z m -28.45661,-7.64489 c -20.55246,-2.65622 -25.06447,-3.70497 -31.58236,-7.34361 l -5.90462,-3.29584 3.89006,-5.75462 c 11.83752,-17.5072 17.68082,-24.49537 20.91506,-24.97762 5.44629,-0.81208 23.27642,5.42386 23.05734,8.06374 -0.0992,1.1957 -0.47665,8.36031 -0.83886,15.92181 -0.81288,16.96741 -1.60376,18.40881 -9.53547,17.38436 z m -55.40551,-15.31541 c -17.67969,-6.09155 -19.08052,-11.76368 -6.56948,-26.60911 17.57133,-20.84935 15.29723,-20.06439 28.53189,-9.84627 11.28951,8.71637 10.86722,7.76251 6.70882,15.15734 -9.27643,16.49746 -19.83608,24.34154 -28.67165,21.2973 z" />
  </g>
  <path
     style="fill:none;fill-opacity:1;stroke:#000000;stroke-width:8;stroke-dasharray:24, 24;stroke-dashoffset:0;stroke-opacity:1"
     d="m 2519.0168,5.4573986 c 0,163.3813614 0,163.3813614 0,163.3813614"
     id="path20" />
</svg>
